<svg xmlns="http://www.w3.org/2000/svg" xmlns:xlink="http://www.w3.org/1999/xlink" viewBox="0 0 603.1 268.1"><defs><style>.cls-1{fill:#333}.cls-2{fill:url(#GradientYellow)}.cls-3{fill:#fbb03b}.cls-4{fill:url(#GradientYellow-2)}.cls-5{fill:url(#GradientYellow-3)}.cls-6{fill:url(#GradientYellow-4)}.cls-7{fill:url(#GradientYellow-5)}.cls-8{fill:url(#GradientYellow-6)}.cls-9{fill:url(#GradientYellow-7)}.cls-10{fill:url(#GradientYellow-8)}.cls-11{fill:url(#GradientYellow-9)}.cls-12{fill:url(#GradientYellow-10)}.cls-13{fill:url(#GradientYellow-11)}.cls-14{fill:url(#GradientYellow-12)}.cls-15{fill:url(#GradientYellow-13)}.cls-16{fill:url(#GradientYellow-14)}.cls-17{fill:url(#GradientYellow-15)}.cls-18{opacity:.5}.cls-19{fill:#fff}.cls-20{fill:#686868}.cls-21{fill:#4c4c4c}.cls-22{fill:#3d3d3d}.cls-23{fill:#b5b5b5}.cls-24{fill:#a8a8a8}.cls-25{fill:#515151}.cls-26{fill:#e0b3b3}.cls-27{fill:#d51a1a}.cls-28{fill:#991a1a}.cls-29{fill:#f7931e}.cls-30{fill:url(#GradientGreen)}.cls-31{fill:#009245}.cls-32{fill:url(#GradientGreen-2)}.cls-33{fill:url(#GradientGreen-3)}.cls-34{fill:url(#GradientGreen-4)}.cls-35{fill:url(#GradientGreen-5)}.cls-36{fill:url(#GradientGreen-6)}.cls-37{fill:url(#GradientGreen-7)}.cls-38{fill:url(#GradientGreen-8)}.cls-39{fill:url(#GradientGreen-9)}.cls-40{fill:url(#GradientGreen-10)}.cls-41{opacity:.4}.cls-42{fill:#8fa6a7}.cls-43{fill:#bcc4c8}.cls-44{fill:#ebf0f1}.cls-45{fill:#009fd6}.cls-46{fill:#f2ab44}.cls-47{fill:#ed655f}.cls-48{fill:#00d163}.cls-49{fill:#7a8d8e}.cls-50{fill:none;stroke:#7a8d8e;stroke-linecap:round;stroke-miterlimit:10;stroke-width:10px}</style><linearGradient id="GradientYellow" data-name="Gradient Yellow" x1="29.79" y1="257.24" x2="29.79" y2="201.03" gradientUnits="userSpaceOnUse"><stop offset="0" stop-color="#ff0"/><stop offset="1" stop-color="#fcee21" stop-opacity=".8"/></linearGradient><linearGradient id="GradientYellow-2" x1="66.39" y1="235.6" x2="66.39" y2="200.94" xlink:href="#GradientYellow"/><linearGradient id="GradientYellow-3" x1="110.25" y1="235.73" x2="110.25" y2="201.81" xlink:href="#GradientYellow"/><linearGradient id="GradientYellow-4" x1="155.04" y1="234.92" x2="155.04" y2="200.94" xlink:href="#GradientYellow"/><linearGradient id="GradientYellow-5" x1="215.2" y1="235.37" x2="215.2" y2="185.27" xlink:href="#GradientYellow"/><linearGradient id="GradientYellow-6" x1="251.43" y1="234.92" x2="251.43" y2="200.94" xlink:href="#GradientYellow"/><linearGradient id="GradientYellow-7" x1="287.52" y1="235.39" x2="287.52" y2="201.49" xlink:href="#GradientYellow"/><linearGradient id="GradientYellow-8" x1="323.65" y1="234.92" x2="323.65" y2="200.94" xlink:href="#GradientYellow"/><linearGradient id="GradientYellow-9" x1="349.18" y1="235.74" x2="349.18" y2="185.63" xlink:href="#GradientYellow"/><linearGradient id="GradientYellow-10" x1="375.13" y1="236.99" x2="375.13" y2="201.82" xlink:href="#GradientYellow"/><linearGradient id="GradientYellow-11" x1="414.66" y1="257.22" x2="414.66" y2="201.82" xlink:href="#GradientYellow"/><linearGradient id="GradientYellow-12" x1="463.47" y1="235.73" x2="463.47" y2="201.81" xlink:href="#GradientYellow"/><linearGradient id="GradientYellow-13" x1="508.26" y1="234.92" x2="508.26" y2="200.94" xlink:href="#GradientYellow"/><linearGradient id="GradientYellow-14" x1="544.41" y1="237.25" x2="544.41" y2="201.91" xlink:href="#GradientYellow"/><linearGradient id="GradientYellow-15" x1="578.82" y1="235.58" x2="578.82" y2="185.21" xlink:href="#GradientYellow"/><linearGradient id="GradientGreen" data-name="Gradient Green" x1="38.49" y1="139.97" x2="38.49" y2="51.84" gradientUnits="userSpaceOnUse"><stop offset="0" stop-color="#8cc63f"/><stop offset="1" stop-color="#39b54a" stop-opacity=".7"/></linearGradient><linearGradient id="GradientGreen-2" x1="98.88" y1="140.32" x2="98.88" y2="79.43" xlink:href="#GradientGreen"/><linearGradient id="GradientGreen-3" x1="160.71" y1="139.95" x2="160.71" y2="80.43" xlink:href="#GradientGreen"/><linearGradient id="GradientGreen-4" x1="222.24" y1="140.32" x2="222.24" y2="79.43" xlink:href="#GradientGreen"/><linearGradient id="GradientGreen-5" x1="283.72" y1="139.97" x2="283.72" y2="51.84" xlink:href="#GradientGreen"/><linearGradient id="GradientGreen-6" x1="346.7" y1="139.43" x2="346.7" y2="80.2" xlink:href="#GradientGreen"/><linearGradient id="GradientGreen-7" x1="405.02" y1="141.81" x2="405.02" y2="78.32" xlink:href="#GradientGreen"/><linearGradient id="GradientGreen-8" x1="446.8" y1="138.77" x2="446.8" y2="56" xlink:href="#GradientGreen"/><linearGradient id="GradientGreen-9" x1="498.85" y1="178.44" x2="498.85" y2="80.98" xlink:href="#GradientGreen"/><linearGradient id="GradientGreen-10" x1="564.65" y1="140.28" x2="564.65" y2="51.71" xlink:href="#GradientGreen"/></defs><title>JavaScript for game development</title><g id="GameDevelopment"><path class="cls-1" d="M18.1 267.3c-4.9 0-7.6-.8-10-2.8-5.4-4.7-5.3-11.8-5.2-18.6.1-4.4 1-7.9 2.8-10.6l.2-.3-.2-.3c-2.7-3.7-4-8.4-4-14.4a45.6 45.6 0 0 1 3.9-17.2l.2-.3a21.8 21.8 0 0 1 18.4-11.1l3.5.3 4.5.4 1.7-1.2h12a13.3 13.3 0 0 1 5.5 1.6h.4a39 39 0 0 1 13-1.8h.4c10.6 0 12.5.7 13.7 1.2a12.9 12.9 0 0 1 3.5 2.1l.2.2h.2a37.9 37.9 0 0 1 8.6-1.2c3.9 0 7.1.2 9.8 1.4h.4a22.7 22.7 0 0 1 9.4-2.6h.3a12.4 12.4 0 0 1 7.6 2.8l.2.2h.3c7.3-2.7 9.8-3 11.2-3h1.3a10.2 10.2 0 0 1 5.9 2.6l.3.3.3-.2c4.9-3.2 11.3-3.5 15.7-3.5h1.1c3.5 0 6.4.3 8.3.5a17.3 17.3 0 0 1 6.7 2.3h.1a26.1 26.1 0 0 1 5.4 4.7c4.5 5.2 4.9 11.1 4.8 15.6a17.3 17.3 0 0 1-1.1 6.4v2.7c.2 7.5-1.2 12.9-4.6 16.7s-10.4 4.9-16.7 4.9H153c-3.9 0-8 0-12-1.3h-.1L118 245H92.9l-18.2.4h-2.8a10.3 10.3 0 0 1-5.8-1.8h-5a47.5 47.5 0 0 1-5.6-.3H55v.5c-.4 9.2-.8 10.7-1.1 11.5-1.7 5.8-7.6 7.5-9.9 8.2a114.4 114.4 0 0 1-17.5 3c-3.5.6-6.2.8-8.4.8z"/><path d="M64.8 191.4h.5c10.5 0 12.4.7 13.5 1.2a12.4 12.4 0 0 1 3.4 2l.4.3h.4a37.3 37.3 0 0 1 8.5-1.2c3.9 0 7 .2 9.6 1.4l.4.2.4-.2a22.2 22.2 0 0 1 9.2-2.6h.3a11.9 11.9 0 0 1 7.3 2.7l.4.4.5-.2c7.2-2.6 9.7-3 11.1-3h1.3a9.6 9.6 0 0 1 5.6 2.4l.6.5.6-.4c4.8-3.1 11.1-3.5 15.4-3.5h1.1c3.5.1 6.4.3 8.2.5a16.8 16.8 0 0 1 6.5 2.2h.1a25.6 25.6 0 0 1 5.3 4.6c4.3 5 4.8 10.8 4.7 15.3a16.8 16.8 0 0 1-1.1 6.2v3c.2 7.4-1.2 12.6-4.4 16.4s-9.9 4.8-16.3 4.8h-5.1c-3.9 0-7.9 0-11.9-1.3h-.3l-23 1.5H92.9l-18.2.4h-2.8a9.8 9.8 0 0 1-5.5-1.7l-.3-.2h-5a47 47 0 0 1-5.5-.3h-1.1v1.2c-.4 9.1-.8 10.6-1 11.4-1.6 5.5-7.4 7.2-9.5 7.8a114 114 0 0 1-17.4 3c-3.5.4-6.2.5-8.4.5-4.7 0-7.4-.8-9.6-2.7-5.2-4.6-5.1-11.5-5-18.3.1-4.3 1-7.7 2.7-10.4l.4-.6-.4-.6c-2.6-3.5-3.8-8.1-3.8-14a45 45 0 0 1 3.9-17v-.1a21.3 21.3 0 0 1 18-10.9l3.4.3h.1l4.3.4h.4l.3-.2 1.4-1h11.5a12.8 12.8 0 0 1 5.3 1.6l.4.2.4-.2a38.5 38.5 0 0 1 12.8-1.8m0-1c-6 0-10.2.8-13.2 1.8a13.8 13.8 0 0 0-5.7-1.7H33.7l-1.7 1.3-4.3-.4-3.6-.3a22.4 22.4 0 0 0-18.8 11.4l-.2.3a46.1 46.1 0 0 0-4 17.4c0 6.1 1.3 10.9 4 14.6-1.6 2.4-2.8 5.9-2.8 10.9-.1 6.9-.2 14.1 5.4 19 2.3 2 5.2 3 10.3 3 2.3 0 5.1-.2 8.5-.5a115 115 0 0 0 17.6-3c2.3-.7 8.4-2.4 10.2-8.5.3-.9.7-2.4 1.1-11.6a48 48 0 0 0 5.6.3h4.8a10.8 10.8 0 0 0 6.1 1.9h2.8l18.2-.4H118l23-1.5c4.1 1.3 8.2 1.3 12.2 1.3h5.1c6.8 0 13-.5 17-5.1s4.9-9.4 4.7-17.1v-2.6a17.8 17.8 0 0 0 1.1-6.5c.1-4.6-.4-10.7-5-15.9a26.7 26.7 0 0 0-5.6-4.8h-.1a17.7 17.7 0 0 0-6.9-2.3c-1.8-.2-4.8-.4-8.3-.5h-1.1c-5.2 0-11.2.6-15.9 3.6a10.7 10.7 0 0 0-6.1-2.7h-1.3c-1.7 0-4.4.5-11.4 3.1a12.9 12.9 0 0 0-7.9-2.9h-.3c-3.3 0-6.4 1.1-9.6 2.6-2.7-1.2-5.9-1.5-10-1.5a38.6 38.6 0 0 0-8.7 1.2 13.4 13.4 0 0 0-3.7-2.2c-1.3-.5-3.2-1.2-13.9-1.2z"/><path class="cls-1" d="M385.4 266.7v-21.9l-.7.3a19.4 19.4 0 0 1-7.3 1.8H368a15.4 15.4 0 0 1-5-1h-.1l-28.5-.9-7.5-.2h-5.1c-5.6 0-11.3 0-16.9-3.6l-.3-.2a14.1 14.1 0 0 1-2.1-1.9l-.4-.5-.3.6-1.5 2.1c-2.3 2.6-5.7 4-10.1 4-.5 0-11.3-.1-16-5.5l-.9-1.1-.4-.6-.4.6-1 1.3c-3.9 4.6-10.4 4.9-16.7 4.9h-5.1c-4.7 0-9.5 0-14.3-2.2h-.3l-.2.2a12.9 12.9 0 0 1-4.6 1.9h-.7l-12.3.6h-1.9c-15.4 0-18.2-3.1-19.9-5-3.9-4.4-6.1-13.1-6.4-19.2-.5-9.4.6-14.6 3.7-18l.3-.3a33.1 33.1 0 0 1 14.1-8l1.2-.3h.4l-.7-16.6 33.6-3.7-.2 17.7h.6a41.4 41.4 0 0 1 8.6-.8h1.1c3.5 0 6.4.3 8.3.5a17.3 17.3 0 0 1 6.7 2.3h.1l1.2.8h.2l20.2-5.4 1.6 5.1h17.4c4.9-3.1 11.2-3.4 15.5-3.4h1.1c3.5 0 6.4.3 8.3.5h1.2v-.6l-.5-16.3 11.8 2.4 4.1.5h.3l1.4-.8 15.1-10.3-.3 18.3v7.9h.6a50.2 50.2 0 0 1 7.1-.8h.4a80.5 80.5 0 0 1 15.3 1.8h.1l1.6.5h.5c3.2-2.2 7-2.2 9.4-2.2h13.7c9.7.4 15.5 1.4 19.5 3.2h.2l1.9-.6a37.5 37.5 0 0 1 9.5-1.4c3.9 0 7.1.2 9.8 1.4h.4a22.7 22.7 0 0 1 9.4-2.6h.3a12.4 12.4 0 0 1 7.6 2.8l.2.2h.3c7.3-2.7 9.8-3 11.2-3h1.3a10.2 10.2 0 0 1 5.9 2.6l.3.3.3-.2c4.9-3.2 11.3-3.5 15.7-3.5h1.1c3.5 0 6.4.3 8.3.5a17.3 17.3 0 0 1 6.7 2.3h.1l1 .7h.2l25.1-4.8v6.6l4.5.4h.6v-13.8h5.6v-7.9h30.9v10.5h11.1v29h-14.3v30.9h-28l-11.2-.2-33.3 3 .5-3.6h-10.5c-3.9 0-8 0-12-1.3h-.1l-23.1 1.5h-25l-17.7.4v-3.7h-3l-8.1-.3-5.7-.5v26.5z"/><path d="M364.9 167.5l-.3 17.3v8.5l1.2-.2a49.7 49.7 0 0 1 7-.8h.3a79.8 79.8 0 0 1 15.2 1.8h.1l1.6.5.5.2.4-.3c3.1-2.1 6.7-2.1 9.1-2.1h13.6c9.6.4 15.4 1.3 19.3 3.1l.3.2h.4l1.7-.5a36.9 36.9 0 0 1 9.3-1.4c3.9 0 7 .2 9.6 1.4l.4.2.4-.2a22.2 22.2 0 0 1 9.2-2.6h.3a11.9 11.9 0 0 1 7.3 2.7l.4.4.5-.2c7.2-2.6 9.7-3 11.1-3h1.2a9.6 9.6 0 0 1 5.6 2.4l.6.5.6-.4c4.8-3.1 11.1-3.5 15.4-3.5h1.1c3.5.1 6.4.3 8.2.5a16.8 16.8 0 0 1 6.5 2.2h.1l1 .7.3.3h.4l24.3-4.6v6.4h.9l4.1.4h1.1v-13.8h5.6v-7.9H591v10.5h11.1v28h-13.7v30.9h-27.5l-11.2-.2h-.1l-32.6 2.9.3-2.4.2-1.2h-11c-3.9 0-7.9 0-11.9-1.3h-.4l-23 1.5h-25.1l-17.1.6v-3.7h-3.5l-8.1-.3h-.2l-5-.5h-1.1V267l-25.3-.8V244l-1.4.7a18.9 18.9 0 0 1-7.1 1.8H368a14.9 14.9 0 0 1-4.9-.9h-.3l-28.4-.9-7.5-.2h-5.1c-5.5 0-11.2 0-16.6-3.6l-.3-.2a13.5 13.5 0 0 1-2-1.8l-.9-.9-.7 1.1-1.4 2.1c-2.2 2.5-5.5 3.8-9.7 3.8-.4 0-11.1-.1-15.7-5.3l-.8-1.1-.8-1.2-.8 1.2-.9 1.2c-3.8 4.4-9.9 4.8-16.3 4.8h-5.1c-4.6 0-9.4 0-14.1-2.1l-.5-.2-.5.3a12.4 12.4 0 0 1-4.5 1.8h-.6l-12.3.6h-1.9c-15.2 0-17.9-3-19.5-4.9-3.8-4.3-5.9-12.8-6.3-18.9-.5-9.2.5-14.3 3.5-17.6l.3-.3a32.6 32.6 0 0 1 13.9-7.9l1.2-.3.7-.2v-.9l-.6-15.8 32.6-3.5-.2 16.5v1.2l1.2-.3a40.9 40.9 0 0 1 8.5-.8h1.1c3.5.1 6.4.3 8.2.5a16.8 16.8 0 0 1 6.5 2.2h.1l1.2.8.4.3h.5L288 190l1.3 4.3.2.7h17.7l.2-.2c4.8-3 11-3.4 15.3-3.4h1.1c3.5.1 6.4.3 8.2.5h.6l1.2.2V191l-.4-15.7 11.1 2.3 4.1.5h.5l1.4-.8 14.3-9.7m1-1.9l-15.9 10.8-1.3.7-4-.5-12.4-2.6.5 17h-.6c-1.8-.2-4.8-.4-8.3-.5h-1.1c-5.1 0-11 .5-15.8 3.5h-16.6l-1.6-5.2-20.4 5.5-1.3-.9h-.1a17.7 17.7 0 0 0-6.9-2.3c-1.8-.2-4.8-.4-8.3-.5h-1.1a42.7 42.7 0 0 0-8.7.8l.2-17.7-34.6 3.8.7 16.7-1.2.3a33.7 33.7 0 0 0-14.3 8.2l-.3.3c-3.2 3.5-4.3 8.8-3.8 18.4.3 6.2 2.5 15 6.5 19.5 1.7 2 4.6 5.2 20.3 5.2h1.9l12.4-.6h.7a13.4 13.4 0 0 0 4.8-2c4.9 2.2 9.7 2.2 14.5 2.2h5.1c6.8 0 13-.5 17-5.1l1-1.3.9 1.2c4.9 5.6 15.9 5.7 16.4 5.7 4.6 0 8.1-1.4 10.5-4.2l1.5-2.2a14.6 14.6 0 0 0 2.2 1.9l.3.2c5.8 3.7 11.6 3.7 17.2 3.7h5.2l7.5.2 28.4.9a16 16 0 0 0 5.2 1h9.4a19.8 19.8 0 0 0 7.5-1.9v21.6l27.3.8v-26.7l5 .5h.2l8.2.3h2.3v3.6l18.2-.4h25.1l23-1.5c4.1 1.3 8.2 1.3 12.2 1.3h9.8l-.5 3.6 33.9-3.1 11.2.2h28.5v-30.9h13.7v-30H592v-10.5h-31.8v7.9h-5.6v13.7l-4.1-.4v-6.7L525 194l-1.1-.7h-.1a17.7 17.7 0 0 0-6.9-2.3c-1.8-.2-4.8-.4-8.3-.5h-1.1c-5.2 0-11.2.6-15.9 3.6a10.7 10.7 0 0 0-6.1-2.7H484c-1.7 0-4.4.5-11.4 3.1a12.9 12.9 0 0 0-7.9-2.9h-.3c-3.3 0-6.4 1.1-9.6 2.6-2.7-1.2-5.9-1.5-10-1.5a38.1 38.1 0 0 0-9.6 1.4l-1.7.5c-4.1-1.9-10.1-2.8-19.7-3.2H400c-2.5 0-6.4 0-9.7 2.3l-1.7-.5h-.1a81 81 0 0 0-15.4-1.8h-.4a50.8 50.8 0 0 0-7.2.8v-7.3l.4-19.3z"/><g><path class="cls-2" d="M17.9 257.2c-2.7 0-3.2-.3-3.2-.3-1.8-1.6-1.9-5.2-1.8-11s1.3-5.7 1.7-5.9l13.9 3.4c-1.1 1.6-3 4.8-1.5 6a7.2 7.2 0 0 0 4 1c.7 0 2.4-.1 3.2-.9s1.3-4.1 1.3-4.4v-13.5H19.7c-5.5-.2-8-3.8-8-11.3a35.9 35.9 0 0 1 3-12.9 11.8 11.8 0 0 1 9.5-5.8l2.1.2 8.7.8 2.2-1.6h8.2c1.8.1 2.6 2 2.5 5.6s-2.6 7.4-3.3 8.5l-9-3.2V208h-2.5c-3.1 0-5 .4-5.8 1.2s-2.3 3.2-2.3 8.2v1.2c0 4.6 0 7.9 3.4 9.3a16.9 16.9 0 0 0 5.2 1h2.3V220h.5c6.5 0 8.6 1.9 9 2.3-.1 9.7-.5 28.3-1.1 30.4s-17.3 4.5-26.4 4.5z"/><path class="cls-3" d="M42.5 200.5v1h2.9c1.4.1 2.1 1.8 2 5s-2.1 6.6-3 7.9l-8.3-3v-4h-3c-4.9 0-5.8 1-6.2 1.3s-2.4 3.4-2.4 8.6v1.2c0 4.6 0 8.2 3.8 9.8a17.2 17.2 0 0 0 5.3 1h2.8v-8.6c5.8 0 7.9 1.5 8.5 2-.1 11.1-.5 27.7-1.1 30s-17.4 4.2-25.9 4.2a9 9 0 0 1-2.9-.3c-1.6-1.5-1.7-5.1-1.6-10.5.1-3.8.9-5 1.3-5.4l13 3.2c-2.6 4.1-1.6 5.6-1 6.1a7.8 7.8 0 0 0 4.3 1.1c1 0 2.7-.1 3.6-1s1.4-4.2 1.4-4.8v-14H19.8c-3.2-.1-7.6-1.3-7.6-10.8a35.3 35.3 0 0 1 2.9-12.7 11.4 11.4 0 0 1 9.1-5.5l2 .2h.1l8.5.8h.4l.3-.2 1.9-1.4h5.1v-1m0 0H37l-2.1 1.6-8.5-.8-2.2-.2a12.4 12.4 0 0 0-10 6 36.4 36.4 0 0 0-3 13.1c0 8.7 3.5 11.7 8.5 11.8H35v13s-.1 3-1.2 4.1a4.5 4.5 0 0 1-2.9.7 6.6 6.6 0 0 1-3.7-.9c-1.5-1.1 2-5.9 2-5.9l-14.8-3.6s-2.1.5-2.1 6.4 0 9.6 2 11.3c.4.3 1.7.5 3.5.5 8 0 26.2-2.6 26.9-4.9s1.2-30.7 1.2-30.7-1.7-2.6-9.5-2.6h-1v8.7h-1.8a16.3 16.3 0 0 1-5-.9c-3.5-1.4-3.1-5-3.1-10s.8-6.5 2.1-7.9 3.6-1 5.4-1h2v3.8l9.7 3.5s3.5-4.4 3.7-9-1.2-6-3-6.1z"/><path class="cls-4" d="M71.9 235.6a.4.4 0 0 1-.3-.3v-1a1 1 0 0 0-1-.9c-1.3.1-5.8.4-9.6.4s-5.5-.4-5.7-.6-1.4-2.3-1.6-6.5v-.9c-.3-5.6.8-6.9 1.5-7.2s11.7-1.3 18.3-1.8h.5v-.5c-.1-1.1-.6-6.8-1.7-8s-1.4-.8-2.9-.8a17.5 17.5 0 0 0-6 1.1c-.6.3-1.4 1-.9 3.1a.5.5 0 0 1-.5.5l-4.2.2c-4.4 0-5.2-.9-5.4-1.3-.9-2.2-.4-5.3 1.2-8.1s6.6-2.3 11.6-2.3 9.2.1 10.3.5 2.6 2.4 3.3 4.9 2.1 17.7 2.1 20.4c0 .5 0 1.1.1 1.6.2 2.4.3 4.7-2.3 5.7a27.3 27.3 0 0 1-6.6 1.5zm-1.4-16.8h-1c-2.1.2-5.8 1.5-5.6 5.2s.4 6.2 4.6 6.2h2.2a6.4 6.4 0 0 0 3.7-.8c1.1-.7 1.6-2.1 1.6-4 0-4.6-1-6.4-3.4-6.6z"/><path class="cls-3" d="M65.1 201.4h.1c4.3 0 9.2.2 10 .5s2.3 1.9 3 4.5 2.1 17.6 2.1 20.3c0 .5 0 1.1.1 1.7.2 2.7.2 4.4-2 5.2a26.8 26.8 0 0 1-6.3 1.4v-.8a1.5 1.5 0 0 0-1.5-1.3h-.1c-1.3.1-5.7.4-9.5.4s-5.3-.4-5.4-.5-1.2-1.9-1.4-6.1v-.9c-.3-5.8 1-6.6 1.2-6.7s10.1-1.1 18.2-1.7h1v-1c-.1-1.6-.6-7-1.8-8.3s-1.6-.9-3.3-.9a17.8 17.8 0 0 0-6.2 1.1c-.6.3-1.8 1.2-1.2 3.7l-4.1.2c-3.6 0-4.8-.7-4.9-1-.8-2.1-.4-5 1.2-7.7.7-1.1 5.5-2 11.1-2m3.4 29.3h2.1c3 0 5.8-.6 5.8-5.3s-.5-6.8-3.9-7.1h-3.4c-2.2.2-6.3 1.7-6 5.8s.5 6.7 5.1 6.7M65 200.6c-1 0-10.6.1-12 2.5s-2.3 5.9-1.2 8.6 3.2 1.6 5.8 1.6l4.2-.2a1 1 0 0 0 .9-1v-.2c-.2-.9-.3-2.1.7-2.5a17 17 0 0 1 5.8-1 3.7 3.7 0 0 1 2.5.6c1.1 1.2 1.5 7.7 1.5 7.7S56 218 54.7 218.5s-2.1 2.8-1.8 7.7.2 6.3 1.8 7.7 3.1.7 6 .7 8.2-.3 9.6-.4a.5.5 0 0 1 .5.5v1a.9.9 0 0 0 .8.7h.4a27.8 27.8 0 0 0 6.8-1.5c3.6-1.5 2.5-5 2.5-7.8s-1.3-18-2.1-20.6-2.2-4.6-3.6-5.2-10.4-.6-10.4-.6zm3.5 29.3c-3.6 0-3.8-1.6-4.1-5.8s5.1-4.7 5.1-4.7h3c1.8.1 3 1.2 3 6.1s-2.1 4.3-4.8 4.3h-2.2z"/><path class="cls-5" d="M104 224.4c.2-7.1.2-13.1-1.6-14.5a4.7 4.7 0 0 0-2.8-.7c-2.9 0-7.6 1.2-8.6 3.3s-1 19-1 22.7h-4.8V204a28.5 28.5 0 0 1 6.3-.9c3.4 0 5.3.2 6.1.8a10.4 10.4 0 0 1 2 2 .7.7 0 0 0 .6.3c.6 0 1.5-.5 3.3-1.4s5.6-2.9 7.7-2.9 3.2 4.6 3.2 4.8v.7l.7-.3c3.8-1.5 14-5.5 15.9-5.5s1.8.8 2.9 8.8c.3 2.2 1.3 20.4 1.4 23.6l-6.4.9c.1-3.5.2-14.9-1.3-16.5a5.4 5.4 0 0 0-4.2-1.7h-1.8c-2.4.2-5.3.5-6.2 2.1s-.9 12.7-.9 16.1l-10.7.5z"/><path class="cls-3" d="M130.9 202.3c.1 0 1.3.6 2.4 8.4.3 2 1.2 18.9 1.4 23.1l-5.4.7c.1-5.1.1-14.6-1.5-16.3a5.8 5.8 0 0 0-4.6-1.9h-1.9c-2.5.2-5.6.5-6.6 2.4s-.9 10.9-1 15.8l-9.7.5.3-9.5v-1.3c.2-7.5.2-13.4-1.8-14.9a5.2 5.2 0 0 0-3.1-.8c-3 0-7.9 1.3-9.1 3.5s-1.1 17.4-1.1 22.4h-3.5v-30a28 28 0 0 1 5.8-.8c3.3 0 5.1.2 5.8.7a9.7 9.7 0 0 1 1.9 1.9 1.2 1.2 0 0 0 1 .5c.7 0 1.6-.4 3.5-1.4s5.5-2.8 7.4-2.8h.1c2.6.1 2.6 4.3 2.6 4.3v1.5l1.4-.6c5.2-2.1 14.1-5.4 15.7-5.4m0-1c-2.3 0-16 5.5-16 5.5s.1-5.3-3.6-5.3h-.1c-3.4 0-9.8 4.3-11 4.3h-.2a10.8 10.8 0 0 0-2.2-2.2c-.9-.6-2.6-.9-6.4-.9a28.6 28.6 0 0 0-6.8 1v32.2h5.8s-.1-20.6 1-22.9 5.2-3 8.2-3a4.4 4.4 0 0 1 2.5.6c1.9 1.4 1.5 10.1 1.3 15.4l-.3 10.5 11.7-.6s.2-14.9.9-16.3 3.4-1.7 5.8-1.9h1.8a4.8 4.8 0 0 1 3.9 1.5c1.6 1.7 1.2 16.7 1.2 16.7l7.5-1s-1.1-21.7-1.4-24.1-1.4-9-3.3-9.3z"/><path class="cls-6" d="M158.2 234.9h-5c-5.7 0-8.7-.2-11.5-2a6 6 0 0 1-2.2-3.8c0-.1-.2-11.2 0-16.4s1.1-6.7 3.4-9 5.5-2.7 11.2-2.7h.9c3.3 0 6 .3 7.3.4a7.5 7.5 0 0 1 2.6.9 16.4 16.4 0 0 1 3.1 2.7c2.1 2.5 2.5 5.3 2.4 8.9s-.2 3-2.1 4.3l-.4.3c-2.2 1.5-7.6 1.6-7.6 1.6l-15.9.8v.5a7.1 7.1 0 0 0 1.2 4.1c1.5 1.9 3.6 1.9 5.6 1.9h2.9a8.8 8.8 0 0 0 3.8-.7 2 2 0 0 0 1.2-2.1l10.3-.4c.1 6.7-1.6 8.7-2.1 9.3s-5.2 1.4-9.1 1.4zm-7.4-27a26.2 26.2 0 0 0-4.1.4 5.4 5.4 0 0 0-3.8 3.5 17.6 17.6 0 0 0-.5 3.8v.4c0 1.9.4 3 1.7 3.1h.5c2.6 0 7.6-.5 10-.8h1.1a4 4 0 0 0 2.7-1.6 6.9 6.9 0 0 0 .9-3.2 6.9 6.9 0 0 0-.5-2.3 4.9 4.9 0 0 0-3-2.6 26.1 26.1 0 0 0-5-.7z"/><path class="cls-3" d="M154.2 200.4v1h.9c3.1 0 5.7.3 7.3.4a7 7 0 0 1 2.4.8 16.1 16.1 0 0 1 3 2.6c2 2.3 2.4 5.1 2.3 8.6s-.1 2.6-1.9 3.9l-.4.3c-1.7 1.1-5.9 1.4-7.4 1.5l-15.4.7h-.9v.9a7.4 7.4 0 0 0 1.3 4.4c1.6 2.1 3.9 2.1 6 2.1h3a9.2 9.2 0 0 0 4.1-.7 2.4 2.4 0 0 0 1.4-2l9.3-.4c0 6.1-1.5 7.9-2 8.5s-6.8 1.3-8.9 1.3h-5c-5.6 0-8.5-.2-11.2-1.9a5.5 5.5 0 0 1-2-3.4c0-.7-.2-11.4 0-16.3s1-6.5 3.3-8.7 5.3-2.6 10.9-2.6v-1m-9.7 19.2c2.6 0 7.6-.5 10.1-.8h1.1a4.5 4.5 0 0 0 3.1-1.9 7.3 7.3 0 0 0 1-3.5 7.4 7.4 0 0 0-.5-2.5 5.4 5.4 0 0 0-3.4-2.9 22.2 22.2 0 0 0-9.3-.2 6 6 0 0 0-4.2 3.9 18 18 0 0 0-.5 3.9v.4c0 .1.1 3.5 2.2 3.6h.5m9.7-19.2c-4.7 0-9.3.6-11.6 2.8s-3.3 4.2-3.6 9.4 0 16.4 0 16.4a6.5 6.5 0 0 0 2.4 4.2c3 2 6.2 2.1 11.8 2.1h5c4.3 0 8.3-.2 9.6-1.7s2.5-3.5 2.2-10.2l-11.3.4a1.7 1.7 0 0 1-.8 2.1 8.3 8.3 0 0 1-3.6.6h-1.6c-2.4-.1-4.9.3-6.6-1.8a6.6 6.6 0 0 1-1-3.7l15.4-.7s5.6-.1 7.9-1.6 2.6-1.6 2.7-4.9-.2-6.6-2.6-9.2a17 17 0 0 0-3.3-2.8 8 8 0 0 0-2.8-.9c-1.5-.2-4.1-.4-7.4-.4zm-9.7 18.2h-.5c-.7-.1-1.2-.5-1.3-2.6v-.4a17.1 17.1 0 0 1 .5-3.6 5 5 0 0 1 3.5-3.2 21.3 21.3 0 0 1 8.9.2 4.4 4.4 0 0 1 2.7 2.3 6.5 6.5 0 0 1 .4 2.1 6.4 6.4 0 0 1-.9 2.9 3.5 3.5 0 0 1-2.3 1.4c-.8.1-7.8.9-11 .9z"/><path class="cls-7" d="M216.1 235.4c-7.2 0-12.3-.6-13.2-1.6s-3.6-7.6-3.9-13.1.1-9.7 1.1-10.7a23.5 23.5 0 0 1 9.4-5.3c3.1-.8 9-2.9 9.1-2.9h.3l-.6-14.8 13.1-1.4-.5 46.3a3.4 3.4 0 0 1-2.6 3.3l-11.2.5zm2.6-27.6c-3.6 0-5.5 8.8-6.1 12.6 0 .3-.7 6.1 1.5 8.2a12.2 12.2 0 0 0 7.2 3 7.1 7.1 0 0 0 6.3-6.6c.1-3.9 0-7-1.2-10s-5.1-7.3-7.6-7.3z"/><path class="cls-3" d="M230.9 185.8l-.5 45.7a2.9 2.9 0 0 1-2.2 2.7l-11.2.5h-.9c-7.9 0-12.2-.8-12.9-1.5s-3.5-7.6-3.7-12.8.2-9.6.9-10.3a23.3 23.3 0 0 1 9.2-5.2c3.1-.8 8.9-2.8 9.1-2.9l.7-.2v-.7l-.5-14 12.1-1.3m-9.7 46.2a7.6 7.6 0 0 0 6.7-7.1c.1-3.9 0-7.2-1.3-10.2s-5.3-7.5-8-7.5-4.8 2.3-6.6 13c-.1.6-.7 6.3 1.6 8.6a12.8 12.8 0 0 0 7.5 3.1m10.8-47.2l-14.1 1.5.6 14.9s-5.9 2.1-9 2.9a24.1 24.1 0 0 0-9.6 5.5c-1.2 1.3-1.5 5.8-1.2 11.1s2.2 11.4 4 13.4 10.6 1.8 13.6 1.8h.9l11.3-.5a3.9 3.9 0 0 0 3.1-3.7l.5-46.8zM221.3 231a11.8 11.8 0 0 1-6.8-2.8c-2-2-1.3-7.8-1.3-7.8.7-3.9 2.5-12.2 5.6-12.2s6 4.1 7.1 6.8 1.3 5.7 1.2 9.8a6.6 6.6 0 0 1-5.8 6.2z"/><path class="cls-8" d="M254.6 234.9h-5c-5.7 0-8.7-.2-11.5-2a6 6 0 0 1-2.2-3.8c0-.1-.2-11.2 0-16.4s1.1-6.7 3.4-9 5.5-2.7 11.2-2.7h.9c3.3 0 6 .3 7.3.4a7.5 7.5 0 0 1 2.6.9 16.4 16.4 0 0 1 3.1 2.7c2.1 2.5 2.5 5.3 2.4 8.9s-.2 3-2.1 4.3l-.4.3c-2.2 1.5-7.6 1.6-7.6 1.6l-15.9.8v.5a7.1 7.1 0 0 0 1.2 4.1c1.5 1.9 3.6 1.9 5.6 1.9h2.9a8.8 8.8 0 0 0 3.8-.7 2 2 0 0 0 1.2-2.1l10.3-.4c.1 6.7-1.6 8.7-2.1 9.3s-5.2 1.4-9.1 1.4zm-7.4-27a26.2 26.2 0 0 0-4.1.4 5.4 5.4 0 0 0-3.8 3.5 17.6 17.6 0 0 0-.5 3.8v.4c0 1.9.4 3 1.7 3.1h.5c2.6 0 7.6-.5 10-.8h1a4 4 0 0 0 2.7-1.6 6.9 6.9 0 0 0 .9-3.2 6.9 6.9 0 0 0-.5-2.3 4.9 4.9 0 0 0-3-2.6 26.1 26.1 0 0 0-4.9-.7z"/><path class="cls-3" d="M250.6 200.4v1h.9c3.1 0 5.7.3 7.3.4a7 7 0 0 1 2.4.8 16.1 16.1 0 0 1 3 2.6c2 2.3 2.4 5.1 2.3 8.6s-.1 2.6-1.9 3.9l-.4.3c-1.7 1.1-5.9 1.4-7.4 1.5l-15.4.7h-.9v.9a7.4 7.4 0 0 0 1.3 4.4c1.6 2.1 3.9 2.1 6 2.1h3a9.2 9.2 0 0 0 4.1-.7 2.4 2.4 0 0 0 1.4-2l9.3-.4c0 6.1-1.5 7.9-2 8.5s-6.8 1.3-8.9 1.3h-5c-5.6 0-8.5-.2-11.2-1.9a5.5 5.5 0 0 1-2-3.4c0-.7-.2-11.4 0-16.3s1-6.5 3.3-8.7 5.3-2.6 10.9-2.6v-1m-9.7 19.2c2.6 0 7.6-.5 10.1-.8h1.1a4.5 4.5 0 0 0 3.1-1.9 7.3 7.3 0 0 0 1-3.5 7.4 7.4 0 0 0-.5-2.5 5.4 5.4 0 0 0-3.4-2.9 22.2 22.2 0 0 0-9.3-.2 6 6 0 0 0-4.2 3.9 18 18 0 0 0-.5 3.9v.4c0 .1.1 3.5 2.2 3.6h.5m9.7-19.2c-4.7 0-9.3.6-11.6 2.8s-3.3 4.2-3.6 9.4 0 16.4 0 16.4a6.5 6.5 0 0 0 2.4 4.2c3 2 6.2 2.1 11.8 2.1h5c4.3 0 8.3-.2 9.6-1.7s2.5-3.5 2.2-10.2l-11.3.4a1.7 1.7 0 0 1-.8 2.1 8.3 8.3 0 0 1-3.6.6h-1.6c-2.4-.1-4.9.3-6.6-1.8a6.6 6.6 0 0 1-1-3.7l15.4-.7s5.6-.1 7.9-1.6 2.6-1.6 2.7-4.9-.2-6.6-2.6-9.2a17 17 0 0 0-3.3-2.8 8 8 0 0 0-2.8-.9c-1.5-.2-4.1-.4-7.4-.4zm-9.7 18.2h-.5c-.7-.1-1.2-.5-1.3-2.6v-.4a17.1 17.1 0 0 1 .5-3.6 5 5 0 0 1 3.5-3.2 21.2 21.2 0 0 1 8.9.2 4.4 4.4 0 0 1 2.7 2.3 6.5 6.5 0 0 1 .4 2.1 6.4 6.4 0 0 1-.9 2.9 3.5 3.5 0 0 1-2.3 1.4c-.8.1-7.8.9-11 .9z"/><path class="cls-9" d="M290.1 235.4c-3.4 0-7.7-1.2-8.5-2.1s-1.5-2.9-2.4-5.4-1.3-3.5-2.2-5.5c-2-4.5-5.1-15.7-5.8-18.1l10.5-2.8c5.4 17.4 8.1 18.7 8.8 18.7s3.2-1.1 6.2-15.8h7.2c.6 10-9.6 28.5-11.2 30.4-.2.2-.7.6-2.6.6z"/><path class="cls-3" d="M281.3 202.1c.5 1.6 1.7 5.1 3 8.6 3.5 9.3 5 10.1 6.1 10.1s2.7-1 4.8-8.6c.8-2.9 1.5-5.8 1.8-7.2h6.3c.2 9.8-9.6 27.8-11.1 29.6a3.9 3.9 0 0 1-2.2.4c-3.3 0-7.5-1.2-8.1-1.9s-1.4-2.8-2.4-5.2-1.3-3.5-2.2-5.6c-1.8-4.2-4.8-14.4-5.7-17.6l9.6-2.6m.7-1.2l-11.5 3.1s3.7 13.5 6 18.7 3.3 9.4 4.7 11 5.6 2.2 8.8 2.2c1.4 0 2.5-.2 2.9-.7s12.2-21.1 11.3-31.2H296s-3.2 15.8-5.8 15.8-8.4-18.8-8.4-18.8z"/><path class="cls-10" d="M326.8 234.9h-5c-5.7 0-8.7-.2-11.5-2a6 6 0 0 1-2.2-3.8c0-.1-.2-11.2 0-16.4s1.1-6.7 3.4-9 5.5-2.7 11.2-2.7h.9c3.3 0 6 .3 7.3.4a7.5 7.5 0 0 1 2.6.9 16.4 16.4 0 0 1 3.1 2.7c2.1 2.5 2.5 5.3 2.4 8.9s-.2 3-2.1 4.3l-.4.3c-2.2 1.5-7.6 1.6-7.6 1.6l-15.9.8v.5a7.1 7.1 0 0 0 1.2 4.1c1.5 1.9 3.6 1.9 5.6 1.9h2.9a8.8 8.8 0 0 0 3.8-.7 2 2 0 0 0 1.2-2.1l10.3-.4c.1 6.7-1.6 8.7-2.1 9.3s-5.1 1.4-9.1 1.4zm-7.4-27a26.2 26.2 0 0 0-4.1.4 5.4 5.4 0 0 0-3.8 3.5 17.7 17.7 0 0 0-.5 3.8v.4c0 1.9.4 3 1.7 3.1h.5c2.6 0 7.6-.5 10-.8h1.1a4 4 0 0 0 2.7-1.6 6.9 6.9 0 0 0 .9-3.2 6.9 6.9 0 0 0-.5-2.3 4.9 4.9 0 0 0-3-2.6 26.1 26.1 0 0 0-5-.7z"/><path class="cls-3" d="M322.8 200.4v1h.9c3.1 0 5.7.3 7.3.4a7 7 0 0 1 2.4.8 16.1 16.1 0 0 1 3 2.6c2 2.3 2.4 5.1 2.3 8.6s-.1 2.6-1.9 3.9l-.4.3c-1.7 1.1-5.9 1.4-7.4 1.5l-15.4.7h-.9v.9a7.4 7.4 0 0 0 1.3 4.4c1.6 2.1 3.9 2.1 6 2.1h3a9.2 9.2 0 0 0 4.1-.7 2.4 2.4 0 0 0 1.4-2l9.3-.4c0 6.1-1.5 7.9-2 8.5s-6.8 1.3-8.9 1.3h-5c-5.6 0-8.5-.2-11.2-1.9a5.5 5.5 0 0 1-2-3.4c0-.7-.2-11.4 0-16.3s1-6.5 3.3-8.7 5.3-2.6 10.9-2.6v-1m-9.7 19.2c2.6 0 7.6-.5 10.1-.8h1.1a4.5 4.5 0 0 0 3.1-1.9 7.3 7.3 0 0 0 1-3.5 7.4 7.4 0 0 0-.5-2.5 5.4 5.4 0 0 0-3.4-2.9 22.2 22.2 0 0 0-9.3-.2 6 6 0 0 0-4.2 3.9 18 18 0 0 0-.5 3.9v.4c0 .1.1 3.5 2.2 3.6h.5m9.7-19.2c-4.7 0-9.3.6-11.6 2.8s-3.3 4.2-3.6 9.4 0 16.4 0 16.4a6.5 6.5 0 0 0 2.4 4.2c3 2 6.2 2.1 11.8 2.1h5c4.3 0 8.3-.2 9.6-1.7s2.5-3.5 2.2-10.2l-11.3.4a1.7 1.7 0 0 1-.8 2.1 8.3 8.3 0 0 1-3.6.6h-1.6c-2.4-.1-4.9.3-6.6-1.8a6.6 6.6 0 0 1-1-3.7l15.4-.7s5.6-.1 7.9-1.6 2.6-1.6 2.7-4.9-.2-6.6-2.6-9.2a17 17 0 0 0-3.3-2.8 8 8 0 0 0-2.8-.9c-1.5-.2-4.1-.4-7.4-.4zm-9.7 18.2h-.5c-.7-.1-1.2-.5-1.3-2.6v-.4a17.1 17.1 0 0 1 .5-3.6 5 5 0 0 1 3.5-3.2 21.3 21.3 0 0 1 8.9.2 4.4 4.4 0 0 1 2.7 2.3 6.5 6.5 0 0 1 .4 2.1 6.4 6.4 0 0 1-.9 2.9 3.5 3.5 0 0 1-2.3 1.4c-.8.1-7.8.9-11 .9z"/><g><path class="cls-11" d="M344.6 235.4l-1.3-48.4a47.5 47.5 0 0 0 6 .7h.2c1.9 0 4.4-1.3 5.6-2l-.8 50.1z"/><path class="cls-3" d="M354.6 186.5l-.8 48.7-8.7-.3-1.3-47.3a47.7 47.7 0 0 0 5.5.6h.3a11.9 11.9 0 0 0 5.1-1.7m1-1.8s-3.6 2.5-6.1 2.5h-.2a45.8 45.8 0 0 1-6.5-.8l1.4 49.5 10.6.3.9-51.5z"/></g><g><path class="cls-12" d="M368.1 237a6.9 6.9 0 0 1-4.7-2.4c-1.9-2.4-4.1-7.4-4.1-17.3l.2-7.4a6.2 6.2 0 0 1 .1-1.1 9.1 9.1 0 0 1 5.8-6 40.9 40.9 0 0 1 7.6-1.1 70.9 70.9 0 0 1 13.1 1.5 6.1 6.1 0 0 1 4 4.2c1.2 5.4 1.8 16.3-2.9 23.4a13.7 13.7 0 0 1-2.5 2.7l-3.6 2.2a9.3 9.3 0 0 1-3.9 1.2zm6.8-10.9a4.7 4.7 0 0 0 2.2-.6l1.8-1.1a7.6 7.6 0 0 0 1.4-1.6c3-4.9 1.7-12.2 1.5-13a3.8 3.8 0 0 0-2.5-2.8 27 27 0 0 0-5.5-.7h-.4a26.6 26.6 0 0 0-4.4.4 5.4 5.4 0 0 0-3.3 3.8 4.1 4.1 0 0 0-.1.7v3.9c0 4.4.8 7.6 2.1 9.6a3.8 3.8 0 0 0 2.8 1.4h4.5z"/><path class="cls-3" d="M373 202.3a70.4 70.4 0 0 1 13 1.5 5.6 5.6 0 0 1 3.7 3.8c1.1 5.3 1.8 16.1-2.8 23a13.4 13.4 0 0 1-2.4 2.5l-3.6 2.2a8.7 8.7 0 0 1-3.6 1.1h-8.9a6.4 6.4 0 0 1-4.3-2.2c-1.8-2.4-4-7.2-4-16.9l.2-7.4a5.7 5.7 0 0 1 .1-1 8.6 8.6 0 0 1 5.4-5.6 40.4 40.4 0 0 1 7.5-1.1m-2.5 24.3h4.2a5.2 5.2 0 0 0 2.4-.7l1.8-1.1h.1a8.2 8.2 0 0 0 1.5-1.7c3.1-5 1.7-12.5 1.6-13.3a4.3 4.3 0 0 0-2.9-3.2 27.2 27.2 0 0 0-5.6-.7h-.4a26.8 26.8 0 0 0-4.5.5h-.1a5.9 5.9 0 0 0-3.6 4.1 4.7 4.7 0 0 0-.1.8v3.9c0 4.5.8 7.8 2.2 9.8a4.3 4.3 0 0 0 3.2 1.6m2.5-25.3a41.5 41.5 0 0 0-7.7 1.1 9.6 9.6 0 0 0-6.1 6.3 6.6 6.6 0 0 0-.1 1.2l-.2 7.4c0 9.9 2.3 15 4.2 17.6a7.4 7.4 0 0 0 5.1 2.6h9a9.8 9.8 0 0 0 4.2-1.3l3.5-2.1a14.3 14.3 0 0 0 2.6-2.8c5-7.3 4.1-18.5 3-23.8a6.6 6.6 0 0 0-4.4-4.5 71.5 71.5 0 0 0-13.2-1.6zm-2.5 24.3a3.3 3.3 0 0 1-2.4-1.2c-.9-1.3-2-4-2-9.3v-3.9a3.7 3.7 0 0 1 .1-.6 4.9 4.9 0 0 1 2.9-3.4 26.1 26.1 0 0 1 4.3-.4h.4a26.4 26.4 0 0 1 5.4.7 3.4 3.4 0 0 1 2.1 2.4c.5 2.8.9 8.7-1.4 12.6a7.3 7.3 0 0 1-1.3 1.5l-1.8 1.1a4.2 4.2 0 0 1-1.9.6h-4.5z"/></g><g><path class="cls-13" d="M395.4 257v-49.5c0-5.5 0-5.5 4.6-5.5h13.2c3.5.1 14.3.6 17 3s3.7 6.6 3.7 13.5-.2 11-1.6 12.6-1.1.8-6.8.8c-3.7 0-7.4-.3-7.5-.3l-16.4-1.5v27.1zm26.2-50.4H420c-.1 0-8.5 1.1-8 9.1s.6 10.9 6.6 11h3.1c1.9 0 3.9-.2 5.4-1.4s2.2-3.6 2.2-7c0-8.1-1.3-11.3-4.8-11.6z"/><path class="cls-3" d="M410.3 201.3v1h2.9c9.4.4 15 1.4 16.7 2.9s3.5 6.4 3.5 13.2-.2 10.8-1.5 12.3-1 .7-6.4.7c-3.6 0-7.4-.3-7.4-.3l-15.9-1.5h-1.1v27.2l-5.3-.2v-49.1c0-2.4 0-4 .4-4.5s1.6-.5 3.7-.5h10.3v-1m11.4 26c4.9 0 8.1-1.5 8.1-8.9s-1.4-11.7-5.3-12.1l-3-.2h-1.6c-3.1.4-8.8 2.8-8.5 9.6s.6 11.4 7.1 11.4h3.2m-11.4-26H400c-5.1 0-5.1.4-5.1 6v50.1l7.3.2v-27l15.9 1.5s3.8.3 7.5.3 6.5-.2 7.2-1 1.7-5.6 1.7-12.9-1.3-11.6-3.9-13.9-11.5-2.9-17.3-3.2zm11.4 25h-3.1c-5.4-.1-5.7-2.9-6.1-10.5s7.6-8.5 7.6-8.5h1.5l2.9.2c2.7.3 4.4 2.3 4.4 11.1 0 7.1-3.1 7.9-7.1 7.9z"/></g><g><path class="cls-14" d="M457.3 224.4c.2-7.1.2-13.1-1.6-14.5a4.7 4.7 0 0 0-2.8-.7c-2.9 0-7.6 1.2-8.6 3.3s-1.1 19.1-1.1 22.7h-4.8V204a28.5 28.5 0 0 1 6.3-.9c3.4 0 5.3.2 6.1.8a10.4 10.4 0 0 1 2 2 .7.7 0 0 0 .6.3c.5 0 1.5-.5 3.3-1.4s5.6-2.9 7.7-2.9 3.2 4.6 3.2 4.8v.7l.7-.3c3.8-1.5 14-5.5 15.9-5.5s1.8.8 2.9 8.8c.3 2.2 1.3 20.4 1.4 23.6l-6.4.9c.1-3.5.2-14.9-1.3-16.5a5.4 5.4 0 0 0-4.2-1.7h-1.8c-2.4.2-5.3.5-6.2 2.1s-.9 12.7-.9 16.1l-10.7.5z"/><path class="cls-3" d="M484.1 202.3c.1 0 1.3.6 2.4 8.4.3 2 1.2 18.9 1.4 23.1l-5.4.7c.1-5.1.1-14.6-1.5-16.3a5.8 5.8 0 0 0-4.6-1.9h-1.9c-2.5.2-5.6.5-6.6 2.4s-.9 10.9-1 15.8l-9.7.5.3-9.5v-1.3c.2-7.5.2-13.4-1.8-14.9a5.2 5.2 0 0 0-3.1-.8c-3 0-7.9 1.3-9.1 3.5s-1.1 17.4-1.1 22.4H439v-30a28 28 0 0 1 5.8-.8c3.3 0 5.1.2 5.8.7a9.7 9.7 0 0 1 1.9 1.9 1.2 1.2 0 0 0 1 .5c.7 0 1.6-.4 3.5-1.4s5.5-2.8 7.4-2.8h.1c2.6.1 2.6 4.3 2.6 4.3v1.5l1.4-.6c5.2-2.1 14.1-5.4 15.7-5.4m0-1c-2.3 0-16 5.5-16 5.5s.1-5.3-3.6-5.3h-.1c-3.4 0-9.8 4.3-11 4.3h-.2a10.8 10.8 0 0 0-2.2-2.2c-.9-.6-2.6-.9-6.4-.9a28.6 28.6 0 0 0-6.8 1v32.2h5.8s-.1-20.6 1-22.9 5.2-3 8.2-3a4.4 4.4 0 0 1 2.5.6c1.9 1.4 1.5 10.1 1.3 15.4l-.3 10.5 11.7-.6s.2-14.9.9-16.3 3.4-1.7 5.8-1.9h1.8a4.8 4.8 0 0 1 3.9 1.5c1.6 1.7 1.2 16.7 1.2 16.7l7.5-1s-1.1-21.7-1.4-24.1-1.4-9-3.3-9.3z"/></g><g><path class="cls-15" d="M511.4 234.9h-5c-5.7 0-8.7-.2-11.5-2a6 6 0 0 1-2.2-3.8c0-.1-.2-11.2 0-16.4s1.1-6.7 3.4-9 5.5-2.7 11.2-2.7h.9c3.3 0 6 .3 7.3.4a7.5 7.5 0 0 1 2.6.9 16.4 16.4 0 0 1 3.1 2.7c2.1 2.5 2.5 5.3 2.4 8.9s-.2 3-2.1 4.3l-.4.3c-2.2 1.5-7.6 1.6-7.6 1.6l-15.9.8v.5a7.1 7.1 0 0 0 1.2 4.1c1.5 1.9 3.6 1.9 5.6 1.9h3a8.8 8.8 0 0 0 3.8-.7 2 2 0 0 0 1.2-2.1l10.3-.4c.1 6.7-1.6 8.7-2.1 9.3s-5.2 1.4-9.2 1.4zm-7.4-27a26.2 26.2 0 0 0-4.1.4 5.4 5.4 0 0 0-3.8 3.5 17.7 17.7 0 0 0-.5 3.8v.4c0 1.9.4 3 1.7 3.1h.5c2.6 0 7.6-.5 10-.8h1.1a4 4 0 0 0 2.7-1.6 6.9 6.9 0 0 0 .9-3.2 6.9 6.9 0 0 0-.5-2.3 4.9 4.9 0 0 0-3-2.6 26.1 26.1 0 0 0-5-.7z"/><path class="cls-3" d="M507.4 200.4v1h.9c3.1 0 5.7.3 7.3.4a7 7 0 0 1 2.4.8 16.1 16.1 0 0 1 3 2.6c2 2.3 2.4 5.1 2.3 8.6s-.1 2.6-1.9 3.9l-.4.3c-1.7 1.1-5.9 1.4-7.4 1.5l-15.4.7h-.9v.9a7.4 7.4 0 0 0 1.3 4.4c1.6 2.1 3.9 2.1 6 2.1h3a9.2 9.2 0 0 0 4.1-.7 2.4 2.4 0 0 0 1.4-2l9.3-.4c0 6.1-1.5 7.9-2 8.5s-6.8 1.3-8.9 1.3h-5c-5.6 0-8.5-.2-11.2-1.9a5.5 5.5 0 0 1-2-3.4c0-.7-.2-11.4 0-16.3s1-6.5 3.3-8.7 5.3-2.6 10.9-2.6v-1m-9.7 19.2c2.6 0 7.6-.5 10.1-.8h1.1a4.5 4.5 0 0 0 3.1-1.9 7.3 7.3 0 0 0 1-3.5 7.4 7.4 0 0 0-.5-2.5 5.4 5.4 0 0 0-3.4-2.9 22.2 22.2 0 0 0-9.3-.2 6 6 0 0 0-4.2 3.9 18 18 0 0 0-.5 3.9v.4c0 .1.1 3.5 2.2 3.6h.5m9.7-19.2c-4.7 0-9.3.6-11.6 2.8s-3.3 4.2-3.6 9.4 0 16.4 0 16.4a6.5 6.5 0 0 0 2.4 4.2c3 2 6.2 2.1 11.8 2.1h5c4.3 0 8.3-.2 9.6-1.7s2.5-3.5 2.2-10.2l-11.4.6a1.7 1.7 0 0 1-.8 2.1 8.3 8.3 0 0 1-3.6.6H506c-2.4-.1-4.9.3-6.6-1.8a6.6 6.6 0 0 1-1-3.7l15.4-.7s5.6-.1 7.9-1.6 2.6-1.6 2.7-4.9-.2-6.6-2.6-9.2a17 17 0 0 0-3.3-2.8 8 8 0 0 0-2.8-.9c-1.5-.2-4.1-.4-7.4-.4zm-9.7 18.2h-.5c-.7-.1-1.2-.5-1.3-2.6v-.4a17.1 17.1 0 0 1 .5-3.6 5 5 0 0 1 3.5-3.2 21.3 21.3 0 0 1 8.9.2 4.4 4.4 0 0 1 2.7 2.3 6.5 6.5 0 0 1 .4 2.1 6.4 6.4 0 0 1-.9 2.9 3.5 3.5 0 0 1-2.3 1.4c-.8.1-7.8.9-11 .9z"/></g><g><path class="cls-16" d="M532.5 203.3l7.4-1.4v3.7l13.7 1.2a7.3 7.3 0 0 1 4.7 2.3 14.3 14.3 0 0 1 1.7 2.8 12 12 0 0 1 .8 3.9v.4a148.4 148.4 0 0 1-1.5 19l-12.5-.2.3-18.2a2.2 2.2 0 0 0-2.1-2.2h-2.5a3.5 3.5 0 0 0-3.5 3.5v18.4l-11.2 1z"/><path class="cls-3" d="M539.4 202.5v3.5h.9l13.3 1.2a6.7 6.7 0 0 1 4.3 2.1 13.9 13.9 0 0 1 1.6 2.7 11.4 11.4 0 0 1 .8 3.7v.3a148.6 148.6 0 0 1-1.4 18.5l-11.5-.2.3-17.8a2.7 2.7 0 0 0-2.6-2.7h-2.5a4 4 0 0 0-4 4v17.9l-10.1.9 4.4-32.9 6.5-1.2m1-1.2l-8.4 1.6-4.7 34.9 12.3-1.1v-18.8a3 3 0 0 1 3-3h2.5a1.7 1.7 0 0 1 1.6 1.7l-.3 18.7 13.4.2a147.6 147.6 0 0 0 1.6-19.5v-.3a12.4 12.4 0 0 0-.8-4.1 14.9 14.9 0 0 0-1.8-3 7.8 7.8 0 0 0-5.1-2.4l-13.3-1.2v-3.8z"/></g><g><path class="cls-17" d="M571.2 235.6l-.4-27.3-5.8-1.2v-14h5.7v-7.9h10.8v10.5h11.1v9h-13.7v30.9h-7.7z"/><path class="cls-3" d="M581 185.7v10.5h11.1v8h-13.7v30.9h-6.7l-.4-26.4v-.8l-.8-.2-5-1.1v-13h5.6v-7.9h9.9m1-1h-11.8v7.9h-5.6v14.9l5.8 1.2.4 27.4h8.7v-30.9h13.7v-10H582v-10.5z"/></g></g><g class="cls-18"><path class="cls-19" d="M14.3 257.3c2 1.7 29.6-1.6 30.4-4.4s.7-8.7.9-15.9L35 240.1v5s-.1 3-1.2 4.1-5.1 1-6.6-.2 2-5.9 2-5.9l-2.1-.5q-7.7 2.5-14.8 5.2c0 4.8.3 7.9 2 9.5zM70.4 233.9a.5.5 0 0 1 .5.5v1a.9.9 0 0 0 .8.7h.3a27.8 27.8 0 0 0 6.8-1.5c3.1-1.2 2.7-4 2.6-6.6q-13.1 2.9-25.2 6c3.5.6 12.1.1 14.2-.1zM128.3 235.7l7.5-1s-.5-9.3-.9-16.4l-7.4 1.1c1.2 3 .8 16.3.8 16.3zM103.5 225.7l-.3 10.5 11.7-.6s.1-9.8.5-14.3l-11.9 2.1zM90.5 235.7s0-4.5.1-9.6l-5.8 1.2v8.5zM139 229.1a6.5 6.5 0 0 0 2.4 4.2c3 2 6.2 2.1 11.8 2.1s12.9.4 14.6-1.6 2.5-3.5 2.2-10.2l-11.3.4a1.7 1.7 0 0 1-.8 2.1 10.4 10.4 0 0 1-5.2.6c-2.4-.1-4.9.3-6.6-1.8a6.6 6.6 0 0 1-1-3.7l15.4-.7s5.6-.1 7.9-1.6 2.6-1.6 2.7-4.9v-.4l-12.6 1.4a5.5 5.5 0 0 1-.6 1.3 3.5 3.5 0 0 1-2.3 1.4c-.8.1-8.6 1-11.5.9-.6 0-1-.3-1.2-1.5l-4 .6c0 5.3.1 11.4.1 11.4zM198.5 220.7c.3 5.3 2.2 11.4 4 13.4s14.6 1.8 14.6 1.8l11.3-.5a3.9 3.9 0 0 0 3.1-3.7l.3-23.2-10.8.7a15.5 15.5 0 0 1 5 6c1.1 2.7 1.3 5.7 1.2 9.8a6.6 6.6 0 0 1-5.8 6.2 11.8 11.8 0 0 1-6.8-2.8c-2-2-1.3-7.8-1.3-7.8.5-3 1.8-8.7 3.8-11.1l-17.8 1.4c-.8 1.8-1 5.6-.8 9.8zM235.4 229.1a6.5 6.5 0 0 0 2.4 4.2c3 2 6.2 2.1 11.8 2.1s12.9.4 14.6-1.6 2.5-3.5 2.2-10.2l-11.3.4a1.7 1.7 0 0 1-.8 2.1 10.4 10.4 0 0 1-5.2.6c-2.4-.1-4.9.3-6.6-1.8a6.6 6.6 0 0 1-1-3.7l15.4-.7s5.6-.1 7.9-1.6 2.6-1.6 2.7-4.9a15.5 15.5 0 0 0-1.1-7.1q-15.4.5-30.4 1.3a22.5 22.5 0 0 0-.6 4.5c-.2 5.2 0 16.4 0 16.4zm4.2-17.1a5 5 0 0 1 3.5-3.2 21.2 21.2 0 0 1 8.9.2 4.4 4.4 0 0 1 2.7 2.3 6.5 6.5 0 0 1 .4 2.1 6.4 6.4 0 0 1-.9 2.9 3.5 3.5 0 0 1-2.3 1.4c-.8.1-8.6 1-11.5.9-.7-.1-1.2-.5-1.3-2.6v-.4a17.1 17.1 0 0 1 .6-3.7zM281.2 233.6c1.4 1.6 10.3 3.2 11.8 1.5s10.8-18.5 11.3-29h-8.6c-1 4.4-3.3 13.5-5.3 13.5s-4.7-7.8-6.6-13.3l-12.5.3c1.2 4.2 3.6 12.3 5.2 16s3.3 9.4 4.7 11zM307.6 229.1a6.5 6.5 0 0 0 2.4 4.2c3 2 6.2 2.1 11.8 2.1s12.9.4 14.6-1.6 2.5-3.5 2.2-10.2l-11.3.4a1.7 1.7 0 0 1-.8 2.1 10.4 10.4 0 0 1-5.2.6c-2.4-.1-4.9.3-6.6-1.8a6.6 6.6 0 0 1-1-3.7l15.4-.7s5.6-.1 7.9-1.6 2.6-1.6 2.7-4.9a15 15 0 0 0-1.3-7.4q-14.6-.3-29.5-.4c-.8 1.5-1.2 3.4-1.3 6.5-.2 5.2 0 16.4 0 16.4zm4.2-17.1a5 5 0 0 1 3.5-3.2 21.3 21.3 0 0 1 8.9.2 4.4 4.4 0 0 1 2.7 2.3 6.5 6.5 0 0 1 .4 2.1 6.4 6.4 0 0 1-.9 2.9 3.5 3.5 0 0 1-2.3 1.4c-.8.1-8.6 1-11.5.9-.7-.1-1.2-.5-1.3-2.6v-.4a17.1 17.1 0 0 1 .6-3.7zM354.8 236.3l.5-29.3-11.9-.4.8 29.3zM359 210l-.2 7.4c0 9.9 2.3 15 4.2 17.6a7.4 7.4 0 0 0 5.1 2.6h9a9.8 9.8 0 0 0 4.2-1.3l3.7-2.3a14.3 14.3 0 0 0 2.6-2.8c4.6-6.8 4.2-16.7 3.3-22.4l-10.4-.6a3.2 3.2 0 0 1 .9 1.7c.5 2.8.9 8.7-1.4 12.6a7.3 7.3 0 0 1-1.3 1.5l-1.8 1.1a4.2 4.2 0 0 1-1.9.6h-4.5a3.3 3.3 0 0 1-2.4-1.2c-.9-1.3-2-4-2-9.3v-3.9a3.7 3.7 0 0 1 .1-.6 5 5 0 0 1 2.2-3l-8.6-.4a7.2 7.2 0 0 0-.6 1.6 6.6 6.6 0 0 0-.2 1.1zM402.1 257.7v-27.1l15.9 1.5s13.2 1 14.7-.7 1.7-5.6 1.7-12.9a41.2 41.2 0 0 0-.4-6l-5.7-.6a33.9 33.9 0 0 1 .5 6.6c0 8.8-4.9 7.9-10.3 7.8s-5.7-2.9-6.1-10.5a7.6 7.6 0 0 1 1.5-5.2l-19.1-1.5v48.4zM480.4 218.9c1.6 1.7 1.2 16.7 1.2 16.7l7.5-1s-.4-8.3-.8-15.3l-8.9-1.4zM456.7 225.7l-.3 10.5 11.7-.6s.2-14.9.9-16.3 3.4-1.7 5.8-1.9h.4l-18.5-2.4c.3 3.3.1 7.6 0 10.7zM443.7 235.7s-.1-17.7.8-22.1l-6.5-.7v23zM494.6 233.3c3 2 6.2 2.1 11.8 2.1s12.9.4 14.6-1.6 2.1-3 2.3-8l-9.1-1.8H512a1.7 1.7 0 0 1-.8 2.1 10.4 10.4 0 0 1-5.2.6c-2.4-.1-4.9.3-6.6-1.8a6.6 6.6 0 0 1-1-3.7h.5l-6.7-1.1c0 4.6.1 9 .1 9a6.5 6.5 0 0 0 2.3 4.2zM539.6 236.7v-7.4l-10.8-2.4-1.5 10.9zM546.4 235.4l13.4.2.2-1.4-13.5-3.4z"/></g></g><g id="joystick"><path class="cls-20" d="M402.8 156.2h2.4v2.37h-2.4z"/><path class="cls-21" d="M409.9 156.2H405.2v2.3h7.1v-2.3h-2.4zM402.8 172.7h2.4v2.37h-2.4zM405.2 172.7h2.4v2.37h-2.4z"/><path class="cls-22" d="M407.6 172.7h2.4v2.37h-2.4z"/><path class="cls-23" d="M405.2 175.1v11.8h2.4V175.1h-2.4z"/><path class="cls-24" d="M407.6 175.1v11.8h2.3V175.1h-2.3z"/><path class="cls-20" d="M414.7 186.9H398.1v2.4H417v-2.4h-2.3z"/><path class="cls-25" d="M395.7 189.3h2.4v2.37h-2.4z"/><path class="cls-22" d="M417 189.3h-18.9v2.4h21.3v-2.4H417zM409.9 172.7h2.4v2.37h-2.4z"/><path class="cls-21" d="M412.3 158.5h2.4v2.37h-2.4z"/><path class="cls-20" d="M400.5 158.5h2.4v2.37h-2.4z"/><path class="cls-22" d="M412.3 170.4h2.4v2.37h-2.4z"/><path class="cls-21" d="M400.5 170.4h2.4v2.37h-2.4z"/><path class="cls-20" d="M398.1 160.9h2.4v2.37h-2.4z"/><path class="cls-26" d="M405.2 158.5h-2.4v4.8h4.8v-4.8h-2.4z"/><path class="cls-27" d="M412.3 160.9v-2.4H407.6v4.8h-4.8v-2.4h-2.3v9.5h2.3v2.3h4.8v-2.3h2.3V168h2.4v-2.4h2.4V160.9h-2.4z"/><path class="cls-28" d="M412.3 165.6v2.4h-2.4v2.4h-2.3v2.3H412.3v-2.3h2.4v-4.8h-2.4z"/><path class="cls-21" d="M414.7 160.9v7.1h2.3v-7.1h-2.3z"/><path class="cls-22" d="M414.7 168h2.4v2.37h-2.4z"/><path class="cls-21" d="M398.1 163.3v7.1h2.4v-7.1h-2.4z"/></g><g id="for"><path class="cls-1" d="M161.1 184.8l-5-21.8c-.6-3.1 1.8-4.8 2.8-5.5l.6-.4c.4-.3 1.8-1.3 9.6-3.7l4.6-1.4 1.7 9 .6-.2 3.2-1h.2a38.7 38.7 0 0 1 5.7-.5h.1l13.2-4.5.6 2 8.3-2.4 3.2 16.7h-8.9l1.4 10.6-12.7 1.8h-.3a29 29 0 0 1-3.7 1.4l-4.4.8h-1.2a7.9 7.9 0 0 1-5.1-1.8l-1.1-.9.6 3.1-13 2.5z"/><path d="M173.3 152.6l1.5 7.9.2 1.2 1.1-.4 3.1-1h.1a38.3 38.3 0 0 1 5.6-.5h.3l12.7-4.3.3 1 .3 1 1-.3 7.3-2.1 3 15.6h-8.9v1.3l1.2 9.5-12.1 1.7h-.3a27.2 27.2 0 0 1-3.6 1.4l-4.4.8h-1.1a7.5 7.5 0 0 1-4.8-1.7l-2.2-1.9.5 2.8.2 1.2-12.1 2.3-.8-3.6-5-21.8c-.5-2.8 1.7-4.3 2.6-5l.6-.4c.4-.3 1.7-1.2 9.4-3.6l4.1-1.3m.8-1.3l-5.2 1.6c-7.9 2.4-9.2 3.4-9.7 3.7l-.6.4c-1 .7-3.7 2.5-3 6l5 21.8 1 4.5 14-2.7-.4-2.2a8.5 8.5 0 0 0 5.4 2h1.3l4.4-.8h.1a29.3 29.3 0 0 0 3.8-1.4l13.1-1.8-1.4-10.5h9l-3.4-17.9-8.3 2.4-.6-2-13.4 4.5a39.6 39.6 0 0 0-5.8.5h-.2l-3.2 1-1.7-9z"/><g><path class="cls-29" d="M160.4 162.2c-.1-.4.5-.7 1.7-1.6s8.3-3 8.3-3l1.1 5.8-4.9.9a2.3 2.3 0 0 0-1.9-.8c-1.2.2-1 1.8-1 1.8l1.6 8.3 7-1.3.5 2.6-4.2.8 1.4 7.4-4.6.9zM189.8 176.9a6.9 6.9 0 0 1-1 1.6l-1.5 1.4a4.7 4.7 0 0 1-1.9 1l-4.3.8a3.6 3.6 0 0 1-2.7-.8c-1.2-1-2.7-3.3-3.6-8l-.6-3.5a3.2 3.2 0 0 1 0-.6 4.7 4.7 0 0 1 2.4-3.6 20.1 20.1 0 0 1 3.6-1.2 34.7 34.7 0 0 1 6.4-.5 3.2 3.2 0 0 1 2.5 1.8c.9 2.4 2.3 7.7.7 11.6zm-4.9-9.6a1.6 1.6 0 0 0-1.2-1l-2.6.2h-.2l-2 .6a2.4 2.4 0 0 0-1.1 1.9 1.8 1.8 0 0 0 0 .3l.3 1.9c.5 2.5 1.2 3.7 1.8 4.2a1.6 1.6 0 0 0 1.2.4l2.1-.4h.1l.9-.4.7-.7.5-.8c.7-2.1 0-4.9-.6-6.2zM190.4 162l5-1.7.5 1.8 7.9-2.2 1.3 7a46.7 46.7 0 0 0-5.8.4c-3 .7-2.6.2-2.4 2.9l1 8.1-3.9.5z"/></g></g><g id="JavaScript"><path class="cls-1" d="M454.5 188.3v-39H429l-1.1-32.7h-.4c-6.7-1.1-15.2-2.3-18.1-2.3h-2.1l-2.3 38.6-32.5-1.7V146h-.6c-10 1.5-27.5 3.9-33.1 3.9h-.3c-17.9-.3-21.5-3.9-23.2-5.6a13.1 13.1 0 0 1-1.7-2.2l-.3-.5-.4.3c-5.7 4.6-13.5 7.2-22.5 7.6-11.6.5-23.4.7-34.7.9l-11.3.2v-2.1l-.7.2a58.9 58.9 0 0 1-11.1 2.1h-.6a10.9 10.9 0 0 1-7.9-3.3l-.2-.2h-.2l-11.1.3c-13 0-15.2-1.9-17.1-3.6-5.3-4.6-5.9-9.6-6.3-17.2v-2l-.8 1.8c-4.7 10-9.5 17.8-10.7 19.2-3.9 4.5-10.3 4.5-12.4 4.5-.2 0-16.7-.2-22.8-7.2-2.6-3-4.1-7-6.2-12.6l-1.5-4v3c.2 9-3.3 14.9-10.6 17.9h-.2a58.5 58.5 0 0 1-14.7 3.3h-.8a10.9 10.9 0 0 1-7.9-3.3l-.2-.2h-.2l-11.1.3c-13 0-15.2-1.9-17-3.5l-.4-.3-.3.4a13.9 13.9 0 0 1-6 3.8c-5 1.6-12.1 2.4-20.9 2.4h-1.4c-19.5-.2-25.4-1-30.3-4.1-7.1-4.1-10.9-12.1-12-44.2l-.3-8.9 39.9-3.9.5-9.9-28 3.2V41.3h51a10.9 10.9 0 0 1 10.8 10.3c.4 6.1.7 12.7.9 19.4v.7l.6-.2c4.9-1.7 11.5-2.5 19.7-2.5h.8c17.4 0 20.2 1.1 21.6 1.6a17 17 0 0 1 7.1 5.3l.2.3 31.7-8.5 2.7 8.7c1.3 4.2 2.8 8.6 4.3 12.8l.6 1.6.4-1.6c.5-2.2 1-4.4 1.5-6.5l1.6-7.6h24.8c4.6-4 13.4-6.1 26.2-6.1h.8c17.4 0 20.2 1.1 21.6 1.6l2.1 1 .7.4v-.8a33.4 33.4 0 0 1 7.5-20.6c6.8-8.3 17.7-9.2 25.3-9.2l5.8.2h.4a202.4 202.4 0 0 1 29.2 4.1l7.5 1.7-.6 30.6 1.1-1c3.7-3.1 9-5.3 16.2-6.6a43.5 43.5 0 0 1 15.6 0c5.3.9 10.4 2 15.2 3.1l2.3.7.7.3v-2.9l37.2-5.1.6 7.2 18.2-1.6 3.8-29.6 33.9 10.3v18.6h.6a34.5 34.5 0 0 1 7.9-.6h23.8c16.7.7 26.4 2.3 32.5 5.3l.7.4V55.1h10V41.2h39.9v18.6h19.6v36.6h-24.4v54.4H541l-.2-16.3-.9 1.7a16.2 16.2 0 0 1-1.9 2.9c-1.9 2.2-4.4 5.2-20.2 5.2-3.9 0-8.5-.2-13.6-.6l-17.8-1.6v47.2z"/><path d="M579.3 41.7v18.6h19.6v35.6h-24.3v54.4h-33.1l-.2-13.8v-3.9l-1.8 3.4a15.7 15.7 0 0 1-1.9 2.8c-1.8 2.1-4.3 5-19.8 5-3.9 0-8.5-.2-13.6-.6h-.2l-17.1-1.6h-1.1v47.2l-30.8-1v-39h-25.5l-1-31.9v-.8h-.8c-6.7-1.1-15.3-2.3-18.1-2.3H407v.9l-2.2 37.6-31.5-1.6v-5.3l-1.1.2c-10 1.5-27.5 3.9-33.1 3.9h-.3c-17.7-.3-21.2-3.8-22.8-5.4a12.7 12.7 0 0 1-1.7-2.1l-.6-.9-.9.7c-5.6 4.5-13.3 7.1-22.2 7.5-11.6.5-23.4.7-34.7.9H245v-2.3l-1.3.4a58.3 58.3 0 0 1-11 2.1h-.7a10.4 10.4 0 0 1-7.5-3.2l-.3-.3h-.5l-11 .3c-12.8 0-14.9-1.8-16.8-3.5-5.2-4.5-5.8-9.4-6.1-16.9l-.2-4-1.7 3.6c-4.7 9.9-9.4 17.7-10.6 19.1-3.8 4.4-9.9 4.4-12 4.4-4.6 0-17.4-1.3-22.4-7.1-2.6-3-4.1-6.9-6.1-12.5l-.3-.8-.2-.4-2.1-5.5v5.9c.2 8.8-3.2 14.5-10.3 17.4h-.2a58 58 0 0 1-14.5 3.2h-.7a10.4 10.4 0 0 1-7.5-3.2l-.3-.3h-.5l-11 .3c-12.8 0-15-1.9-16.7-3.4l-.7-.6-.7.7a13.4 13.4 0 0 1-5.8 3.7c-5 1.6-12 2.4-20.7 2.4h-1.5c-19.4-.2-25.3-1-30.1-4-6.9-4.2-10.6-12.1-11.7-44L1 93.5l39-3.8h.9v-.9l.5-8.9v-1.2h-1.1l-26.9 3v-40h50.5a10.4 10.4 0 0 1 10.4 9.8c.4 6.2.7 12.7.9 19.4v1.3l1.3-.4c4.9-1.7 11.4-2.5 19.5-2.5h.8c17.3 0 20.2 1.1 21.4 1.6a16.6 16.6 0 0 1 6.9 5.2l.4.5.6-.2 30.9-8.1 2.6 8.3c1.3 4.2 2.8 8.6 4.3 12.8l1.1 3.1.8-3.2c.5-2.2 1-4.4 1.5-6.5l1.5-7.2h24.4l.3-.2c4.4-3.9 13.4-5.9 25.9-5.9h.8c17.3 0 20.2 1.1 21.4 1.6l2.1 1 1.5.8v-1.7a32.9 32.9 0 0 1 7.4-20.3c6.6-8.1 17.4-9 24.9-9l5.8.2h.4a201.8 201.8 0 0 1 29.1 4.1l7.1 1.6-.6 29.1v2.2l1.7-1.5.3-.2c3.6-3 8.9-5.2 16-6.5a43 43 0 0 1 15.4 0c5.3.9 10.4 2 15.2 3.1l2.2.7 1.4.5V72l36.3-5 .5 6.1v1h1l17.3-1.5h.8v-.8L431 43l33 10v19.1l1.2-.3a34.1 34.1 0 0 1 7.8-.6h23.8c16.7.7 26.3 2.3 32.3 5.3l1.4.7V55.6h10V41.7h38.9m1-1h-41v13.9h-10v20.8c-6.2-3.1-16.1-4.7-32.7-5.4H473a34.9 34.9 0 0 0-8 .6V52.3l-34.9-10.6-3.8 29.8L409 73l-.6-7.2-38.2 5.3v2.6l-2.4-.7c-4.8-1.1-9.9-2.1-15.2-3.1a44 44 0 0 0-15.8 0c-7.3 1.4-12.7 3.6-16.4 6.7l-.3.2.7-30-7.9-1.8a202.9 202.9 0 0 0-29.3-4h-.4l-5.8-.2c-8.4 0-19 1.3-25.7 9.4a34 34 0 0 0-7.6 20.9l-2.2-1.1c-1.4-.5-4.3-1.6-21.8-1.6h-.8c-16.3 0-23.3 3.3-26.5 6.2h-24.9l-1.6 8c-.4 2.1-.9 4.3-1.4 6.4-1.5-4-3-8.5-4.3-12.8l-2.8-9.2-31.9 8.5a17.6 17.6 0 0 0-7.3-5.5c-1.4-.5-4.3-1.6-21.8-1.6H96c-9.3 0-15.5 1.1-19.8 2.5-.2-6.6-.5-13.2-.9-19.4a11.4 11.4 0 0 0-11.4-10.7H12.4V83l28-3.2-.4 9-40 3.8.3 9.4c1.1 32.3 5 40.4 12.2 44.8 5 3.1 11 3.9 30.6 4.1h1.7c8.9 0 16-.8 21-2.4a14.4 14.4 0 0 0 6.2-4c2 1.7 4.4 3.6 17.3 3.6 3.1 0 6.7-.1 11.1-.3a11.5 11.5 0 0 0 8.2 3.5h.8a59.1 59.1 0 0 0 14.8-3.3h.2c10.1-4.1 11-12.9 10.9-18.3l.4 1.2c2.1 5.6 3.6 9.7 6.3 12.8 6.3 7.2 23 7.4 23.2 7.4 2.1 0 8.7 0 12.7-4.7 1.2-1.4 6-9.2 10.8-19.3.4 7.6 1 12.8 6.5 17.6 2 1.8 4.3 3.7 17.5 3.7 3.1 0 6.7-.1 11.1-.3a11.5 11.5 0 0 0 8.2 3.5h.8a59.5 59.5 0 0 0 11.2-2.1v2l11.7-.2c11.4-.2 23.1-.3 34.8-.9 9.1-.4 17-3.1 22.7-7.7a13.7 13.7 0 0 0 1.8 2.3c1.8 1.8 5.4 5.4 23.5 5.7h.3c5.7 0 23.8-2.5 33.2-3.9v5.1l33.4 1.7 2.3-38.6h1.6c2.7 0 11.1 1.1 18 2.3l1.1 32.8H454v39l32.8 1v-47.4l17.1 1.6h.2c5.4.4 9.9.6 13.6.6 16 0 18.7-3.2 20.6-5.4a16.8 16.8 0 0 0 2-3l.2 14.8h35.1V96.9h24.2V59.3h-19.5V40.7z"/><path class="cls-30" d="M43.2 140c-18-.2-22.5-1-24.9-2.5h-.2c-1.7-1-5.6-3.4-6.8-34.8l25.1-2.4c-.2 4.9-.7 21.8.1 24.6s7.8 4.6 9.4 4.6 3.1-3.7 3.9-17.9 2.2-43 2.2-43v-1.2l-28.6 3.3V51.8h40.5a.4.4 0 0 1 .4.4c.4 7.2 1.2 21.9 1.3 39.2.2 19.1-.4 38-.5 43.3a3.9 3.9 0 0 1-2.5 3.4c-2.8.9-8.1 1.9-17.8 1.9z"/><path class="cls-31" d="M63.3 52.8c.4 7.4 1.2 21.7 1.3 38.5.2 19-.4 37.9-.5 43.3a3 3 0 0 1-1.9 2.4c-2.7.9-7.9 1.9-17.5 1.9h-1.5c-17.7-.2-22.2-1-24.4-2.3h-.2c-1.3-.8-5-3.1-6.2-33l23-2.2c-.2 6.4-.6 21.1.1 23.7 1.4 5.1 10.3 5.3 10.4 5.3 3.9 0 4.1-4.4 4.9-18.8S53 68.7 53 68.7v-2.4l-2.3.3-26.4 3V52.8h39m.6-2H22.4v21L51 68.6s-1.5 29.6-2.2 42.8-1.1 17-2.9 17-7.7-.9-8.5-3.8 0-25.4 0-25.4l-27.2 2.6c1.2 33.9 5.5 35.5 7.5 36.7s6.5 2.4 25.4 2.6h1.6c9.7 0 15.1-1 18.1-2a4.9 4.9 0 0 0 3.3-4.3c.2-6.9.7-25.2.5-43.4s-1.1-34.8-1.3-39.2a1.4 1.4 0 0 0-1.4-1.3z"/><path class="cls-32" d="M108.6 140.3a.5.5 0 0 1-.5-.4l-.2-1.7a1.9 1.9 0 0 0-1.9-1.7h-.2c-2.2.2-10.1.7-16.8.7-8.4 0-9.8-.8-10-1-2.3-2-2.4-4-2.8-11.3v-1.6c-.5-10.2 1.7-12.2 2.6-12.6s20.6-2.2 32.3-3.1h1v-1c-.1-2-1-11.9-3-14.2s-2.5-1.4-5.2-1.4-8.5.9-10.6 1.9-2.6 1.9-1.7 5.6v.2a.8.8 0 0 1-.7.8c-1.8.2-4.5.4-7.3.4-7.9 0-9.2-1.7-9.4-2.2-1.5-3.9-.7-9.2 2.1-14.2 1.7-2.9 13-3.9 20.3-3.9h.1c6.2 0 16.1.2 17.9.9s4.6 4.2 5.8 8.5 3.7 31.1 3.7 36c0 .9.1 1.9.1 2.9.3 4.2.5 8.2-4 10a47.9 47.9 0 0 1-11.6 2.6zm-2.4-29.7h-1.8c-3.7.3-10.4 2.7-9.9 9.3s.8 11 8.2 11.1h3.8c2.3 0 4.7-.2 6.5-1.4s2.9-3.7 2.9-7.2c0-8.1-1.7-11.4-6.1-11.8z"/><path class="cls-31" d="M96.6 80.4h.1c7.4 0 16.2.3 17.6.9s3.9 3.3 5.2 7.8 3.6 31 3.6 35.7c0 1 .1 2 .1 3 .3 4.6.3 7.5-3.3 9a48.3 48.3 0 0 1-10.9 2.5l-.2-1.2a2.9 2.9 0 0 0-2.9-2.6h-.2c-2.2.2-10.1.7-16.8.7s-9.1-.7-9.3-.8c-1.9-1.7-2-3.3-2.4-10.6v-1.6c-.5-10 1.6-11.5 2-11.7 1.9-.6 17.8-2 32-3h2v-2c-.3-3.7-1.1-12.4-3.2-14.8s-2.9-1.7-5.9-1.7-8.8.9-11 2-3.3 2.1-2.3 6.5c-1.8.2-4.4.4-7 .4-7.6 0-8.4-1.6-8.4-1.6-1.4-3.6-.7-8.6 2.1-13.4 1.1-1.9 9.8-3.4 19.4-3.4m6.1 51.7h3.8c3.4 0 10.4 0 10.4-9.6 0-6.4-.9-12.3-7-12.8l-3.6-.2h-2c-4 .4-11.3 3-10.8 10.4s.8 12 9.2 12m-6.4-53.6c-1.7 0-18.6.1-21.1 4.4S71.4 93.2 73.2 98c.9 2.3 5.7 2.9 10.3 2.9 2.8 0 5.6-.2 7.4-.4a1.8 1.8 0 0 0 1.6-1.8 2.1 2.1 0 0 0-.1-.4c-.4-1.6-.5-3.7 1.2-4.5a30 30 0 0 1 10.2-1.8c2 0 3.8.3 4.4 1s2.7 13.6 2.7 13.6-30.3 2.2-32.6 3.2-3.7 5-3.2 13.6.4 11.1 3.2 13.6c1.1.9 5.5 1.2 10.6 1.2 6.7 0 14.4-.5 16.9-.7h.1a.9.9 0 0 1 .9.8l.2 1.7a1.5 1.5 0 0 0 1.5 1.3h.1a49.1 49.1 0 0 0 11.9-2.6c6.3-2.6 4.5-8.8 4.5-13.8s-2.4-31.7-3.7-36.3-3.8-8.2-6.4-9.1-18.3-1-18.3-1zm6.1 51.7c-6.4-.1-6.7-2.8-7.3-10.2s9-8.3 9-8.3h1.8l3.4.2c3.2.2 5.2 2.2 5.2 10.8 0 6.9-3.7 7.6-8.4 7.6h-3.8z"/><path class="cls-33" d="M165.2 139.9c-5.9 0-13.5-2.1-14.8-3.6s-2.7-5-4.3-9.4-2.3-6.2-3.9-9.8c-3.4-7.9-9-27.3-10.2-31.8l18.3-4.9c3.3 10.6 10.8 33 15.5 33 1.7 0 4.1-1.7 7.8-14.6 1.6-5.5 2.8-11.1 3.3-13.2h12.5c.9 17.6-16.9 50.1-19.8 53.4-.3.5-1.7.9-4.4.9z"/><path class="cls-31" d="M149.6 81.6c.9 2.9 2.9 8.9 5.2 14.9 6.2 16.5 9 17.9 11 17.9s4.9-1.9 8.8-15.4c1.4-5 2.6-10 3.1-12.5h10.8c.2 17.2-16.9 48.7-19.5 51.7-.2.2-1.2.6-3.7.6-5.8 0-13-2-14.1-3.3s-2.6-5-4.1-9.1-2.3-6.2-3.9-9.8c-3.2-7.3-8.3-24.9-9.9-30.7l16.4-4.4m1.3-2.4l-20.2 5.4s6.6 23.9 10.6 32.9 5.9 16.6 8.3 19.4 9.9 4 15.6 4c2.4 0 4.4-.4 5.2-1.3 2.6-3 21.6-37.3 20-55.1h-14.4s-5.7 27.8-10.3 27.8-14.8-33-14.8-33z"/><path class="cls-34" d="M232 140.3a.5.5 0 0 1-.5-.4l-.2-1.7a1.9 1.9 0 0 0-1.9-1.7h-.2c-2.2.2-10.1.7-16.8.7-8.4 0-9.8-.8-10-1-2.3-2-2.4-4-2.8-11.3v-1.6c-.5-10.2 1.7-12.2 2.6-12.6s20.6-2.2 32.3-3.1h1v-1c-.1-2-1-11.9-3-14.2S230 91 227.3 91s-8.5.9-10.6 1.9-2.6 1.9-1.7 5.6v.2a.8.8 0 0 1-.7.8c-1.8.2-4.5.4-7.3.4-7.9 0-9.2-1.7-9.4-2.2-1.5-3.9-.7-9.2 2.1-14.2 1.7-2.9 13-3.9 20.3-3.9h.1c6.2 0 16.1.2 17.9.9s4.6 4.2 5.8 8.5 3.7 31.1 3.7 36c0 .9.1 1.9.1 2.9.3 4.2.5 8.2-4 10a47.9 47.9 0 0 1-11.6 2.6zm-2.4-29.7h-1.8c-3.7.3-10.4 2.7-9.9 9.3s.8 11 8.2 11.1h3.8c2.3 0 4.7-.2 6.5-1.4s2.9-3.7 2.9-7.2c0-8.1-1.7-11.4-6.1-11.8z"/><path class="cls-31" d="M219.9 80.4h.1c7.4 0 16.2.3 17.6.9s3.9 3.3 5.2 7.8 3.6 31 3.6 35.7c0 1 .1 2 .1 3 .3 4.6.3 7.5-3.3 9a48.3 48.3 0 0 1-10.9 2.5l-.2-1.2a2.9 2.9 0 0 0-2.9-2.6h-.2c-2.2.2-10.1.7-16.8.7s-9.1-.7-9.3-.8c-1.9-1.7-2-3.3-2.4-10.6v-1.6c-.5-10 1.6-11.5 2-11.7 1.9-.6 17.8-2 32-3h2v-2c-.3-3.7-1.1-12.4-3.2-14.8s-2.9-1.7-5.9-1.7-8.8.9-11 2-3.3 2.1-2.3 6.5c-1.8.2-4.4.4-7 .4-7.6 0-8.4-1.6-8.4-1.6-1.4-3.6-.7-8.6 2.1-13.4 1.1-1.9 9.8-3.4 19.4-3.4m6.1 51.7h3.8c3.4 0 10.4 0 10.4-9.6 0-6.4-.9-12.3-7-12.8l-3.6-.2h-2c-4 .4-11.3 3-10.8 10.4s.8 12 9.2 12m-6.1-53.7c-1.7 0-18.6.1-21.1 4.4s-4.1 10.4-2.2 15.1c.9 2.3 5.7 2.9 10.3 2.9 2.8 0 5.6-.2 7.4-.4a1.8 1.8 0 0 0 1.6-1.8 2.1 2.1 0 0 0-.1-.4c-.4-1.6-.5-3.7 1.2-4.5a30 30 0 0 1 9.9-1.6c2 0 3.8.3 4.4 1s2.7 13.6 2.7 13.6-30.3 2.2-32.6 3.2-3.7 5-3.2 13.6.4 11.1 3.2 13.6c1.1.9 5.5 1.2 10.6 1.2 6.7 0 14.4-.5 16.9-.7h.1a.9.9 0 0 1 .9.8l.2 1.7a1.5 1.5 0 0 0 1.5 1.3h.1a49.1 49.1 0 0 0 11.9-2.6c6.3-2.6 4.5-8.8 4.5-13.8s-2.4-31.7-3.7-36.3-3.8-8.2-6.4-9.1-18.3-1-18.3-1zm6.1 51.7c-6.4-.1-6.7-2.8-7.3-10.2s9-8.3 9-8.3h1.8l3.4.2c3.2.2 5.2 2.2 5.2 10.8 0 6.9-3.7 7.6-8.4 7.6h-4z"/><path class="cls-35" d="M256.7 116.7c8.3 3.9 15.3 5.8 22.8 5.9h.8c3.8 0 12.8-.5 15.9-5.2 1.3-2.1 1.3-4.6 0-7.5s-7.4-6.3-11.7-7.9l-3-1.2-4.6-2-7.4-3.2c-6.8-3.2-11.9-9.9-13.7-17.8a24 24 0 0 1 4.5-20.7c3.9-4.8 11.6-5.4 17-5.4h5.9a195.1 195.1 0 0 1 26.6 3.6l-.5 22.9-2-1c-7.8-3.9-17.5-8.7-26.5-8.7a20.9 20.9 0 0 0-6 .8 10 10 0 0 0-7.1 7.9 9 9 0 0 0 3.6 8.9c3.3 2.5 7.6 4.1 11.7 5.7l4.6 1.8c10.9 4.7 22.2 9.6 24.5 22.7 1 5.9 0 10.8-3.1 14.6s-10.5 7.5-19 7.9c-11.4.5-23 .7-34.3.8h-.1z"/><path class="cls-31" d="M277.2 52.8h5.8a195.2 195.2 0 0 1 25.6 3.4l-.4 20.8-.6-.3c-7.9-3.9-17.7-8.8-26.9-8.8a21.9 21.9 0 0 0-6.3.9 11 11 0 0 0-7.8 8.6 10 10 0 0 0 4 9.9c3.4 2.5 7.8 4.2 12 5.8l4.5 1.8c10.7 4.6 21.7 9.3 23.9 21.9 1 5.6 0 10.3-2.9 13.8s-10.1 7.1-18.3 7.5c-11.1.5-22.4.7-33.3.8l1-20.7c7.8 3.6 14.6 5.2 21.8 5.4h.8c3.9 0 13.4-.6 16.7-5.7 1-1.6 1.9-4.4.1-8.5s-7.7-6.7-12.3-8.4l-2.9-1.1-4.6-2-7.3-3.2c-6.5-3.1-11.4-9.5-13.2-17.2a23 23 0 0 1 4.4-19.6c3.7-4.5 11-5 16.2-5m0-2c-6.6 0-13.8.9-17.8 5.7-10.6 12.9-4.5 33.4 9.6 40 3.9 1.9 8 3.4 12 5.2s12 3.8 14.2 8.6c4.4 9.7-8.5 11.3-15 11.3h-.8c-8.6-.2-16.1-2.7-23.7-6.5l-1.3 25.8c11.8-.2 23.7-.3 35.5-.9 13.8-.6 25.7-7.8 23-23.7-2.3-13.5-13.8-18.6-25.1-23.4-5.1-2.2-11.6-4-16.1-7.4s-3.6-13 3.2-15a19.8 19.8 0 0 1 5.7-.8c10.1 0 21.3 6.4 29.5 10.3l.5-25.3a194 194 0 0 0-27.5-3.8l-5.9-.2z"/><g><path class="cls-36" d="M338.7 139.4c-8-.1-14.6-1.1-15.9-2.5s-3.8-8.3-2.8-24 3.7-24.6 7.6-27.9c2.2-1.8 6.1-3.3 11.4-4.3a33 33 0 0 1 11.8 0c5.2.9 10.1 1.9 14.7 3 8.6 1.9 8.4 19.6 8.2 24.5l-14.9-4.2a27.6 27.6 0 0 0 1.3-7.5c-.1-3.5-8.7-10.1-13.1-10.1s-8.7 8.9-9.6 17.4-.1 25.2 1 27.2 1.6 1 3.6 1c3.5 0 11.6-1.4 13.2-3.3s2-5 2.1-6.7h15l.9 13.2c-5 .7-28.9 4.2-34.4 4.2z"/><path class="cls-31" d="M344.8 81.2a39.3 39.3 0 0 1 5.7.5c5.2.9 10.1 1.9 14.7 3s6.3 7.4 7 12.6a62.5 62.5 0 0 1 .5 9.6l-12.6-3.6a28.4 28.4 0 0 0 1.1-6.8c-.1-2.7-3.4-5.6-5.3-7.1s-5.5-3.9-8.7-3.9h-.2c-5.7.1-9.6 9.5-10.5 18.3a131.5 131.5 0 0 0-.2 16.1c.3 6.6.7 10.5 1.4 11.7s2.6 1.6 4.3 1.6 11.9-1.3 14-3.6 2-4.4 2.3-6.3h13.2l.8 11.3c-6.5.9-28.2 4.1-33.3 4.1h-.2c-9.1-.1-14.4-1.4-15.2-2.2s-3.6-7.4-2.5-23.2c1.4-20.2 5.5-25.7 7.2-27.2s5.8-3.2 10.9-4.1a39.3 39.3 0 0 1 5.7-.5m0-2a41 41 0 0 0-6.1.5c-4.1.8-8.9 2.1-11.8 4.5s-7 13.8-8 28.6 1.1 22.8 3.1 24.8 10.7 2.7 16.6 2.8h.2c6.3 0 35.5-4.4 35.5-4.4l-1-15h-17s-.4 5.2-2 7S346 131 342 131c-1.3 0-2.3-.2-2.6-.6s-1.7-18.2-.9-26.6 4.5-16.4 8.5-16.5h.1c4 0 12 6.3 12.1 9.1a26.3 26.3 0 0 1-1.6 8.2l17 4.9s2-24.3-8.9-26.8c-5.8-1.3-11.1-2.3-14.8-3a41 41 0 0 0-6.1-.5z"/></g><g><path class="cls-37" d="M382.8 141.2l-1.4-60.5 17-2.4.6 6.7 29.6-2.7V106c-3.6-.6-14.5-2.3-19.3-2.3h-.9l-4 .2c-6.4.2-6.8.5-7.2 6.4-.1.9-.1 1.8-.3 3l-1.7 28.6z"/><path class="cls-31" d="M397.5 79.5l.4 4.6.2 2 2-.2 27.5-2.5v21.4c-4.4-.7-13.9-2.1-18.3-2.1h-.9l-4 .2c-6.8.2-7.7.9-8.2 7.3-.1.8-.1 1.8-.3 3l-1.6 27.5-10.4-.5-1.4-58.7 15.1-2.1m1.8-2.3l-18.9 2.6L382 142l14.3.7 1.8-29.5c1-9.7-.7-8.1 10.6-8.6h.8c5.7 0 20.3 2.5 20.3 2.5v-26l-29.7 2.7-.6-6.7z"/></g><g><path class="cls-38" d="M439.1 138.8L437.7 95l19.4-.9-2.5 44.6zm-2.6-60.6l2.9-22.2 14.6 4.4v18.4z"/><path class="cls-31" d="M440.2 57.3l12.8 3.9v16.6l-15.3-.6 2.6-19.9M456 95.2l-2.4 42.6h-13.5L438.7 96l17.3-.8m-17.5-40.5l-3.1 24.4 19.6.7V59.7l-16.5-5zm19.6 38.4l-21.5 1 1.5 45.7h17.4l2.6-46.7z"/></g><g><path class="cls-39" d="M465 178.1V90.8c0-9.7 0-9.7 8-9.7h23.3c6.2.3 25.2 1.1 29.9 5.3s6.5 11.6 6.5 23.8-.4 19.4-2.8 22.2c-.2.2-1.7 1.4-11.9 1.4-6.5 0-13.1-.5-13.1-.5l-29.1-2.7v47.8zm46.1-88.8h-2.7c-.2 0-15.1 1.9-14.3 16.1s1.1 19.3 11.7 19.4h5.5c3.4 0 7-.3 9.6-2.5s4-6.3 4-12.4c0-14.4-2.3-20-8.7-20.6z"/><path class="cls-31" d="M491.1 80v2h5.1c16.5.7 26.3 2.4 29.3 5.1s6.2 11.1 6.2 23-.4 18.9-2.5 21.5c-.3.2-2.1 1.1-11.2 1.1-6.4 0-13-.5-13-.5l-28-2.6-2.2-.2v47.9l-8.8-.3V90.8c0-4 0-6.9.7-7.8s3.3-.9 6.3-.9h18.2V80m20.2 46.1c7.6 0 14.6-1.9 14.6-15.9s-2.6-20.9-9.5-21.6l-5.3-.3h-2.9c-5.5.6-15.8 5-15.1 17.2s1.1 20.3 12.7 20.4h5.6M491.1 80l-18.2.2c-9 0-9 .7-9 10.7v88.3l12.8.4v-47.9l28 2.6s6.6.5 13.2.5 11.5-.4 12.7-1.8c2.6-3 3-9.9 3-22.8s-2.3-20.4-6.8-24.5-20.2-5.2-30.6-5.6zm20.2 44.1h-5.5c-9.5-.1-10-5.1-10.8-18.5s13.3-15.1 13.3-15.1h2.7l5.1.3c4.8.5 7.7 4 7.7 19.6 0 12.5-5.5 13.9-12.6 13.9z"/></g><g><path class="cls-40" d="M551.4 140.3l-.7-48.1-10.3-2.2V65.6h10V51.7h18.9v18.6h19.6v15.6h-24.3v54.4h-13.2z"/><path class="cls-31" d="M568.3 52.7v18.6h19.6v13.6h-24.3v54.4h-11.2l-.7-46.3v-1.6l-1.6-.3-8.7-1.8V66.6h10V52.7h16.9m2-2h-20.9v13.9h-10v26.2l10.3 2.2.7 48.3h15.3V86.9h24.2V69.3h-19.6V50.7z"/></g><g class="cls-41"><path class="cls-19" d="M43.2 141c10.6.1 16.5-1 19.6-2a4.9 4.9 0 0 0 3.3-4.3c.1-2.5.2-6.4.3-11.3a468.2 468.2 0 0 0-49.9 14 7.1 7.1 0 0 0 1.4 1c2.3 1.5 6.4 2.4 25.3 2.6zM78.4 136.9c2.5 2.2 23.1.9 27.5.6h.1a.9.9 0 0 1 .9.8l.2 1.7a1.5 1.5 0 0 0 1.5 1.3h.1a49.1 49.1 0 0 0 11.9-2.6c6.3-2.6 4.5-8.8 4.5-13.8 0-1.8-.3-6.6-.8-12.1l-10.7 1.6c.8 1.6 1.2 4.2 1.2 8.2 0 8.6-5.8 7.6-12.1 7.6-6.4-.1-6.7-2.8-7.3-10.2a7.1 7.1 0 0 1 .3-2.6q-10.6 1.9-20.5 4c0 .6 0 1.3.1 1.9.3 8.7.3 11.2 3.1 13.6zM149.6 137c2.5 2.8 18.2 5.7 20.8 2.7s10.9-18.2 16.2-34l-16.9 1.6c-1.3 3.1-2.6 5.2-3.9 5.2s-2.4-1.7-3.8-4.4l-23.3 2.8c.9 2.6 1.8 5 2.6 6.8 3.9 8.9 5.9 16.4 8.3 19.3zM201.8 109.8c-2.3 1-3.7 5-3.2 13.6s.4 11.1 3.2 13.6 23.1.9 27.5.6h.1a.9.9 0 0 1 .9.8l.2 1.7a1.5 1.5 0 0 0 1.5 1.3h.1a49.1 49.1 0 0 0 11.9-2.6c6.3-2.6 4.5-8.8 4.5-13.8 0-2.9-.8-13.7-1.8-22.8l-12.7.5c.3 2.3.4 4 .4 4s-30.4 2.1-32.6 3.1zm36.4 12.8c0 8.6-5.8 7.6-12.1 7.6-6.4-.1-6.7-2.8-7.3-10.2s9-8.3 9-8.3h1.8l3.4.2c3.2.2 5.2 2.1 5.2 10.7zM295.2 110.4c4.6 10.2-9.7 11.5-15.7 11.3-8.6-.2-16.1-2.7-23.7-6.5l-1.4 25.8c11.8-.2 23.7-.3 35.5-.9 13.8-.6 25.7-7.8 23-23.7a23.4 23.4 0 0 0-9.6-15.3h-23.5l1.2.5c4.5 2.1 12 3.9 14.2 8.8zM357.5 104.6l17 4.9s.2-2.5.1-6.1l-16.5-.9a18.5 18.5 0 0 1-.6 2.1zM322.1 137.7c2 2 10.7 2.7 16.6 2.8s35.7-4.3 35.7-4.3l-1-15h-17s-.4 5.2-2 7-14.1 4-15 2.3-1.7-18.2-.9-26.6c.1-.7.2-1.3.3-2l-18.5-.5q-.8 5.1-1.3 11.5c-1 14.8 1.1 22.8 3.1 24.8zM396.1 142.9l1.8-29.5c.6-5.7.2-7.5 2.1-8.1l-19-1.4.9 38.3zM455.6 139.8l1.6-28.4-20-2.5 1 30.9zM476.8 179.5v-47.8l28 2.6s23.3 1.7 25.9-1.3c1.3-1.5 2-4 2.5-7.7l-13.4-3.1c-3.4 2.4-8.5 1.9-14 1.8s-8.2-1.9-9.4-6.4q-15.6-2.8-32.4-5.2v66.8zM565.6 141.3v-7.1q-7.4-2.3-15.4-4.6l.2 11.6z"/></g></g><g id="GamePad"><path class="cls-42" d="M189.5 4.8l-57.7 5.9c-15.6 2.4-26.9 14.5-25.3 29.9s16.3 27.5 32.8 25.8a30.2 30.2 0 0 0 23.3-15.2l3.5-.6 3.3-.2a30.2 30.2 0 0 0 25.9 10.1c16.4-1.7 28.5-16 26.8-31.9S205.9 3.1 189.5 4.8z"/><path class="cls-43" d="M189 .2l-57.7 5.9c-15.5 2.5-26.9 14.6-25.3 30s16.3 27.5 32.8 25.8a30.2 30.2 0 0 0 23.3-15.2l3.5-.6 3.3-.2A30.2 30.2 0 0 0 194.8 56c16.4-1.7 28.5-16 26.8-31.9S205.5-1.5 189 .2z"/><circle class="cls-44" cx="193.2" cy="27.9" r="16.6" transform="rotate(-5.9 192.181 27.415)"/><circle class="cls-45" cx="192" cy="18" r="4.3" transform="rotate(-5.9 191.71 17.662)"/><circle class="cls-46" cx="194" cy="37.9" r="4.3" transform="rotate(-5.9 193.572 38.187)"/><circle class="cls-47" cx="202.9" cy="26.5" r="4.3" transform="rotate(-5.9 201.984 25.974)"/><circle class="cls-48" cx="183.5" cy="28.5" r="4.3" transform="rotate(-5.9 182.379 28.855)"/><circle class="cls-44" cx="134.5" cy="34" r="16.6" transform="rotate(-5.9 134.436 34.167)"/><path class="cls-49" d="M145.4 28.5l-7 .7-.7-7-8.7.9.7 7-7 .7.9 8.7 7-.7.8 7 8.6-.9-.7-7 7-.8-.9-8.6z"/><path class="cls-50" d="M158.2 21.5l9.4-1"/></g></svg>
